<?xml version="1.0" encoding="utf-8"?>
<!-- Generator: Adobe Illustrator 21.1.0, SVG Export Plug-In . SVG Version: 6.00 Build 0)  -->
<svg version="1.1" xmlns="http://www.w3.org/2000/svg" xmlns:xlink="http://www.w3.org/1999/xlink" x="0px" y="0px"
	 viewBox="0 0 85.1 81.1" style="enable-background:new 0 0 85.1 81.1;" xml:space="preserve">
<g id="Layer_1">
</g>
<g id="Layer_2">
	<path d="M0,0h1.6v81.1H0V0z M83.3,0.1v1.6H1.8V0.1H83.3z M83.3,79.4V81H1.8v-1.6H83.3z M83.6,0h1.6v81.1h-1.6V0z M15.8,33l9.4,20.1
		H23l-3.2-6.6h-8.7L8,53.1H5.8L15.3,33H15.8z M15.5,37.2l-3.4,7.3H19L15.5,37.2z M28.3,33h2v12.1c0,1.4,0,2.3,0.1,2.7
		c0.1,0.8,0.3,1.5,0.7,2s0.9,1,1.7,1.3c0.8,0.4,1.5,0.5,2.3,0.5c0.7,0,1.3-0.1,1.9-0.4s1.1-0.7,1.5-1.2s0.7-1.1,0.9-1.8
		c0.1-0.5,0.2-1.6,0.2-3.1V33h2v12.1c0,1.8-0.2,3.2-0.5,4.4s-1.1,2.1-2.1,2.9s-2.3,1.2-3.8,1.2c-1.6,0-3-0.4-4.2-1.2
		s-1.9-1.8-2.3-3.1c-0.2-0.8-0.4-2.2-0.4-4.2V33z M44.6,34.9v-2h11v2h-4.5v18.1h-2.1V34.9H44.6z M68.1,32.5c3,0,5.6,1,7.6,3
		c2.1,2,3.1,4.5,3.1,7.5c0,2.9-1,5.4-3.1,7.5s-4.5,3.1-7.5,3.1c-3,0-5.5-1-7.6-3.1s-3.1-4.5-3.1-7.4c0-1.9,0.5-3.7,1.4-5.4
		c0.9-1.6,2.2-2.9,3.8-3.9C64.5,32.9,66.2,32.5,68.1,32.5z M68.2,34.4c-1.5,0-2.9,0.4-4.2,1.2s-2.4,1.8-3.1,3.1
		c-0.7,1.3-1.1,2.8-1.1,4.4c0,2.4,0.8,4.4,2.5,6.1s3.7,2.5,6,2.5c1.6,0,3-0.4,4.3-1.1c1.3-0.8,2.4-1.8,3.1-3.1
		c0.7-1.3,1.1-2.8,1.1-4.4c0-1.6-0.4-3-1.1-4.3s-1.8-2.3-3.1-3.1C71.1,34.8,69.7,34.4,68.2,34.4z"/>
</g>
</svg>
