<?xml version="1.0" encoding="utf-8"?>
<!-- Generator: Adobe Illustrator 21.1.0, SVG Export Plug-In . SVG Version: 6.00 Build 0)  -->
<svg version="1.1" id="Layer_1" xmlns="http://www.w3.org/2000/svg" xmlns:xlink="http://www.w3.org/1999/xlink" x="0px" y="0px"
	 viewBox="0 0 128 128" style="enable-background:new 0 0 128 128;" xml:space="preserve">
<g>
	<path d="M41.6,38.1c-13.9,0-25.5,11.2-25.5,25.5c0,14.3,11.2,25.6,25.5,25.6c14.3,0,25.5-11.4,25.5-25.6
		C67.1,49.4,55.5,38.1,41.6,38.1z M50.6,57.9c-0.7,0-1.3,0-2-0.3v2.7V61v6.7l-12.3-3V74c0,0.4,0,0.4,0,0.7c0,3.3-2.7,6-6,6
		s-6-2.7-6-6c0-3.3,2.7-6,6-6c0.7,0,1,0.3,1.7,0.3v-5v-6.2l12.6,3v-1.7v-7c0-3.3,2.7-6,6-6c3.3,0,5.9,2.6,6,5.8
		C56.6,55.2,53.9,57.9,50.6,57.9z"/>
	<path d="M122.7,0H5.3C2.3,0,0,2.4,0,5.3v117.5c0,3,2.4,5.3,5.3,5.3h117.5c3,0,5.3-2.4,5.3-5.3V5.3C128,2.4,125.6,0,122.7,0z
		 M75.8,94.2l-16.6-6c-5.7,4.6-10.6,5.3-17.6,5.3c-16.6,0-29.8-13.4-29.8-29.9s13.5-29.8,30-29.8S71.6,47,71.6,63.6
		c0,4.7-0.4,7.7-2.7,12.3l8.9,15.6C78.5,92.9,77.1,94.5,75.8,94.2z M118.8,70.9h-16.4v16.4h-11V70.9H74.9V60h16.4V43.5h11V60h16.4
		V70.9z"/>
</g>
</svg>
