<?xml version="1.0" encoding="utf-8"?>
<!-- Generator: Adobe Illustrator 21.1.0, SVG Export Plug-In . SVG Version: 6.00 Build 0)  -->
<svg version="1.1" id="Layer_1" xmlns="http://www.w3.org/2000/svg" xmlns:xlink="http://www.w3.org/1999/xlink" x="0px" y="0px"
	 viewBox="0 0 128 128" style="enable-background:new 0 0 128 128;" xml:space="preserve">
<style type="text/css">
	.st0{fill:#FFFFFF;}
</style>
<g>
	<path class="st0" d="M31.5,127.5c-8.6,0-15.1-5.7-15.4-13.6v-0.3v-0.3c0-3.6,1.3-7,3.7-9.7l0.1-0.1c-4.8-6.6-8-14.1-9.4-22.2
		C5.4,52.6,25.5,24,54.4,18.8c3-0.5,6.2-0.8,9.3-0.8c0.8,0,1.6,0,2.4,0.1h0.1c20.6,1.2,38.6,13.6,46.9,32.5l0.1,0.2
		c7.9,19.1,4.4,40.8-9.1,56.4l-0.1,0.1c-10.4,11.6-25.2,18.2-40.8,18.2l0,0c-4.6,0-9.2-0.6-13.7-1.8
		C43.6,126.3,37.7,127.5,31.5,127.5L31.5,127.5L31.5,127.5z"/>
	<path d="M103.8,54.7C97,39.3,82.2,29.1,65.5,28.1c-3.2-0.1-6.3,0.1-9.5,0.6c-23.5,4.2-39.9,27.5-35.8,50.9c1.6,9,6,17.3,12.5,23.7
		l-5.4,6.8c-0.8,0.9-1.3,2.1-1.3,3.3c0.1,2.4,2.3,4,5.4,4l0,0c5,0,9.9-1.1,14.5-3l0.4-0.2c0.7-0.3,1.4-0.6,2.1-0.7
		c1,0,1.9,0.2,2.9,0.5l0.4,0.1c16.2,4.2,33.5-0.9,44.6-13.4C107.3,88,110.2,70.2,103.8,54.7z"/>
	<g>
		<path class="st0" d="M56.8,60.7h-9.6c0.3-5.6,2-10,5.3-13.2c3.2-3.2,7.4-4.8,12.5-4.8c3.1,0,5.9,0.7,8.3,2s4.3,3.2,5.8,5.7
			s2.2,5,2.2,7.6c0,3.1-0.9,6.4-2.6,9.9s-4.9,7.7-9.6,12.6l-5.8,6.1h18.4v9.1H45.8V91l16-16.3c3.9-3.9,6.4-7.1,7.7-9.4
			c1.3-2.4,1.9-4.5,1.9-6.5s-0.7-3.6-2-4.9s-3-2-5.1-2s-3.9,0.8-5.3,2.4C57.6,55.9,56.9,58,56.8,60.7z"/>
	</g>
</g>
</svg>
