<?xml version="1.0" encoding="utf-8"?>
<!-- Generator: Adobe Illustrator 21.1.0, SVG Export Plug-In . SVG Version: 6.00 Build 0)  -->
<svg version="1.1" id="Layer_1" xmlns="http://www.w3.org/2000/svg" xmlns:xlink="http://www.w3.org/1999/xlink" x="0px" y="0px"
	 viewBox="0 0 128 128" style="enable-background:new 0 0 128 128;" xml:space="preserve">
<path d="M122.7,0H5.3C2.3,0,0,2.4,0,5.3v117.5c0,3,2.4,5.3,5.3,5.3h117.5c3,0,5.3-2.4,5.3-5.3V5.3C128,2.4,125.6,0,122.7,0z
	 M122.6,122.6H5.4V5.4h117.2V122.6z"/>
<path d="M86.8,42.8c-1.3-1-2.8-1.5-4.4-1.5c-2.2,0-4.2,1-5.6,2.8L58.3,71.9L51.4,65c-1.3-1.3-3-2-4.7-2c-1.7,0-3.2,0.6-4.3,1.8
	c-2.4,2.4-2.4,6.5,0.2,9.1l13.1,13.1c1.2,1.2,2.9,1.9,4.6,1.9c1.1,0,2.2-0.3,3.1-0.8c1.1-0.5,1.9-1.2,2.7-2.1l22-33.1
	C90.4,49.7,89.9,45.2,86.8,42.8z"/>
</svg>
