<?xml version="1.0" encoding="utf-8"?>
<!-- Generator: Adobe Illustrator 21.1.0, SVG Export Plug-In . SVG Version: 6.00 Build 0)  -->
<svg version="1.1" id="Layer_1" xmlns="http://www.w3.org/2000/svg" xmlns:xlink="http://www.w3.org/1999/xlink" x="0px" y="0px"
	 viewBox="0 0 128 129.4" style="enable-background:new 0 0 128 129.4;" xml:space="preserve">
<g>
	<path d="M126.6,3.1c-1.7-1.7-4.3-1.7-5.8,0l-56,55.9L7.2,1.2c-1.7-1.7-4.3-1.7-5.8,0c-1.7,1.7-1.7,4.3,0,5.8l57.5,57.7L1.2,122.4
		c-1.7,1.7-1.7,4.3,0,5.8c0.8,0.8,1.8,1.2,3,1.2s2.2-0.3,3-1.2l57.7-57.7l55.9,55.9c0.8,0.8,1.8,1.2,3,1.2s2.2-0.3,3-1.2
		c1.7-1.7,1.7-4.3,0-5.8l-56-55.9l55.9-55.9C128.1,7.2,128.1,4.6,126.6,3.1z"/>
</g>
</svg>
