<?xml version="1.0" encoding="utf-8"?>
<!-- Generator: Adobe Illustrator 21.1.0, SVG Export Plug-In . SVG Version: 6.00 Build 0)  -->
<svg version="1.1" id="Layer_1" xmlns="http://www.w3.org/2000/svg" xmlns:xlink="http://www.w3.org/1999/xlink" x="0px" y="0px"
	 viewBox="0 0 21 21" style="enable-background:new 0 0 21 21;" xml:space="preserve">
<path d="M9.4,16V2c0-0.1,0-0.1,0-0.2C9.5,1,10.2,0.3,11,0.3c0.3,0,0.5,0.1,0.8,0.2l3.1,1.7c0.6,0.3,0.9,1,0.7,1.7s-0.8,1.2-1.5,1.2
	c-0.3,0-0.5-0.1-0.8-0.2l-1.8-1v0.5c0.1,0,0.2,0.1,0.3,0.1l3.1,1.7c0.6,0.3,0.9,1,0.7,1.7s-0.8,1.2-1.5,1.2l0,0
	c-0.3,0-0.5-0.1-0.8-0.2l-1.8-1V16H9.4z"/>
<g>
	<ellipse cx="10.5" cy="18.8" rx="1.3" ry="1.3"/>
	<ellipse cx="7" cy="18.8" rx="1.3" ry="1.3"/>
	<ellipse cx="14" cy="18.8" rx="1.3" ry="1.3"/>
</g>
</svg>
