<?xml version="1.0" encoding="utf-8"?>
<!-- Generator: Adobe Illustrator 21.1.0, SVG Export Plug-In . SVG Version: 6.00 Build 0)  -->
<svg version="1.1" id="Layer_1" xmlns="http://www.w3.org/2000/svg" xmlns:xlink="http://www.w3.org/1999/xlink" x="0px" y="0px"
	 viewBox="0 0 128 128" style="enable-background:new 0 0 128 128;" xml:space="preserve">
<path d="M123.2,0H5.8c-3,0-5.3,2.4-5.3,5.3v117.5c0,3,2.4,5.3,5.3,5.3h117.5c3,0,5.3-2.4,5.3-5.3V5.3C128.5,2.4,126.1,0,123.2,0z
	 M123.1,122.6H5.9V5.4h117.2V122.6z"/>
<path d="M90.9,43.3H74.6V42c0-3.9-3.1-7-7-7h-6.3c-3.9,0-7,3.1-7,7v1.3H38.1c-1.4,0-2.6,1.2-2.6,2.6s1.2,2.6,2.6,2.6h5.2l0.1,33.2
	c0,6.3,5.1,11.4,11.4,11.4h19.5c6.3,0,11.4-5.1,11.4-11.4l0.1-33.2h5.2c1.4,0,2.6-1.2,2.6-2.6S92.3,43.3,90.9,43.3z M61.9,76.6
	c0,1.4-1.2,2.6-2.6,2.6c-1.4,0-2.6-1.2-2.6-2.6V59.2c0-1.4,1.2-2.6,2.6-2.6c1.4,0,2.6,1.2,2.6,2.6V76.6z M72.4,76.6
	c0,1.4-1.2,2.6-2.6,2.6c-1.4,0-2.6-1.2-2.6-2.6V59.2c0-1.4,1.2-2.6,2.6-2.6c1.4,0,2.6,1.2,2.6,2.6V76.6z"/>
</svg>
