<?xml version="1.0" encoding="utf-8"?>
<!-- Generator: Adobe Illustrator 14.0.0, SVG Export Plug-In . SVG Version: 6.00 Build 43363)  -->
<!DOCTYPE svg PUBLIC "-//W3C//DTD SVG 1.1//EN" "http://www.w3.org/Graphics/SVG/1.1/DTD/svg11.dtd">
<svg version="1.1" id="Layer_1" xmlns="http://www.w3.org/2000/svg" xmlns:xlink="http://www.w3.org/1999/xlink" x="0px" y="0px"
	 width="592.711px" height="592.712px" viewBox="1.284 124.589 592.711 592.712"
	 enable-background="new 1.284 124.589 592.711 592.712" xml:space="preserve">
<rect x="155.796" y="279.101" width="284.153" height="284.152"/>
<path d="M464.864,159.565c-6.927,0-14.065,0-16.84-0.647c-0.648-2.775-0.648-9.915-0.648-16.841s0-14.065,0.648-16.84
	c2.774-0.647,9.913-0.647,16.84-0.647s14.065,0,16.841,0.647c0.647,2.775,0.647,9.914,0.647,16.84s0,14.065-0.647,16.841
	C478.929,159.565,471.791,159.565,464.864,159.565L464.864,159.565z"/>
<path d="M576.508,271.208c-6.926,0-14.065,0-16.842-0.647c-0.646-2.776-0.646-9.914-0.646-16.841c0-6.926,0-14.065,0.646-16.84
	c2.776-0.647,9.916-0.647,16.842-0.647c6.927,0,14.064,0,16.84,0.647c0.647,2.775,0.647,9.914,0.647,16.84
	c0,6.927,0,14.065-0.647,16.841C590.572,271.208,583.434,271.208,576.508,271.208L576.508,271.208z"/>
<path d="M576.508,382.372c-6.926,0-14.065,0-16.842-0.647c-0.646-2.776-0.646-9.914-0.646-16.841c0-6.926,0-14.064,0.646-16.84
	c2.776-0.647,9.916-0.647,16.842-0.647c6.927,0,14.064,0,16.84,0.647c0.647,2.775,0.647,9.914,0.647,16.84
	c0,6.927,0,14.065-0.647,16.841C590.572,382.372,583.434,382.372,576.508,382.372L576.508,382.372z"/>
<path d="M353.221,159.565c-6.927,0-14.064,0-16.841-0.647c-0.647-2.775-0.647-9.915-0.647-16.841s0-14.065,0.647-16.84
	c2.776-0.647,9.914-0.647,16.841-0.647c6.932,0,14.071,0,16.934,0.621c0.559,2.696,0.557,9.192,0.554,15.499v1.368
	c0,6.926,0,14.065-0.646,16.841C367.286,159.565,360.147,159.565,353.221,159.565L353.221,159.565z"/>
<path d="M576.508,494.015c-6.926,0-14.065,0-16.842-0.646c-0.646-2.776-0.646-9.916-0.646-16.842c0-6.927,0-14.063,0.646-16.84
	c2.776-0.647,9.916-0.647,16.842-0.647c6.927,0,14.064,0,16.84,0.647c0.647,2.776,0.647,9.913,0.647,16.84
	c0,6.926,0,14.065-0.647,16.842C590.572,494.015,583.434,494.015,576.508,494.015L576.508,494.015z"/>
<path d="M242.058,159.565c-6.926,0-14.064,0-16.841-0.647c-0.647-2.775-0.647-9.915-0.647-16.841s0-14.065,0.647-16.84
	c2.776-0.647,9.915-0.647,16.841-0.647s14.065,0,16.84,0.647c0.648,2.775,0.648,9.914,0.648,16.84s0,14.065-0.648,16.841
	C256.124,159.565,248.985,159.565,242.058,159.565L242.058,159.565z"/>
<path d="M576.508,605.659c-6.926,0-14.065,0-16.842-0.647c-0.646-2.775-0.646-9.915-0.646-16.842s0-14.064,0.646-16.839
	c2.776-0.648,9.916-0.648,16.842-0.648c6.927,0,14.064,0,16.84,0.648c0.647,2.774,0.647,9.912,0.647,16.839s0,14.066-0.647,16.842
	C590.572,605.659,583.434,605.659,576.508,605.659L576.508,605.659z"/>
<path d="M130.415,159.565c-6.926,0-14.065,0-16.84-0.647c-0.647-2.775-0.647-9.915-0.647-16.841s0-14.065,0.647-16.84
	c2.775-0.647,9.914-0.647,16.84-0.647c6.927,0,14.065,0,16.841,0.647c0.647,2.775,0.647,9.914,0.647,16.84s0,14.065-0.647,16.841
	C144.48,159.565,137.342,159.565,130.415,159.565L130.415,159.565z"/>
<path d="M576.508,717.301c-6.926,0-14.065,0-16.842-0.647c-0.646-2.775-0.646-9.915-0.646-16.842c0-6.926,0-14.063,0.646-16.84
	c2.776-0.646,9.916-0.646,16.842-0.646c6.927,0,14.064,0,16.84,0.646c0.647,2.776,0.647,9.914,0.647,16.84
	c0,6.927,0,14.066-0.647,16.842C590.572,717.301,583.434,717.301,576.508,717.301L576.508,717.301z"/>
<path d="M18.772,159.565c-6.926,0-14.065,0-16.84-0.647c-0.647-2.775-0.647-9.915-0.647-16.841s0-14.065,0.647-16.84
	c2.775-0.647,9.914-0.647,16.84-0.647s14.065,0,16.841,0.647c0.647,2.775,0.647,9.914,0.647,16.84s0,14.065-0.647,16.841
	C32.837,159.565,25.698,159.565,18.772,159.565L18.772,159.565z"/>
<path d="M464.864,717.301c-6.927,0-14.065,0-16.84-0.647c-0.648-2.775-0.648-9.915-0.648-16.842c0-6.926,0-14.063,0.648-16.84
	c2.774-0.646,9.913-0.646,16.84-0.646s14.065,0,16.841,0.646c0.647,2.776,0.647,9.914,0.647,16.84c0,6.927,0,14.066-0.647,16.842
	C478.929,717.301,471.791,717.301,464.864,717.301L464.864,717.301z"/>
<path d="M18.772,271.208c-6.926,0-14.065,0-16.84-0.647c-0.647-2.776-0.647-9.914-0.647-16.841c0-6.926,0-14.065,0.647-16.84
	c2.775-0.647,9.914-0.647,16.84-0.647s14.065,0,16.841,0.647c0.647,2.775,0.647,9.914,0.647,16.84c0,6.927,0,14.065-0.647,16.841
	C32.837,271.208,25.698,271.208,18.772,271.208L18.772,271.208z"/>
<path d="M18.772,382.372c-6.926,0-14.065,0-16.84-0.647c-0.647-2.776-0.647-9.914-0.647-16.841c0-6.926,0-14.065,0.647-16.84
	c2.775-0.647,9.914-0.647,16.84-0.647s14.065,0,16.841,0.647c0.647,2.775,0.647,9.914,0.647,16.84c0,6.927,0,14.065-0.647,16.841
	C32.837,382.372,25.698,382.372,18.772,382.372L18.772,382.372z"/>
<path d="M353.221,717.301c-6.927,0-14.064,0-16.841-0.647c-0.647-2.775-0.647-9.915-0.647-16.842c0-6.926,0-14.063,0.647-16.84
	c2.776-0.646,9.914-0.646,16.841-0.646c6.932,0,14.071,0,16.934,0.621c0.559,2.696,0.557,9.19,0.554,15.497v1.368
	c0,6.927,0,14.066-0.646,16.842C367.286,717.301,360.147,717.301,353.221,717.301L353.221,717.301z"/>
<path d="M18.772,494.015c-6.926,0-14.064,0-16.84-0.646c-0.647-2.776-0.647-9.916-0.647-16.842c0-6.927,0-14.063,0.647-16.84
	c2.775-0.647,9.914-0.647,16.84-0.647s14.065,0,16.841,0.647c0.647,2.776,0.647,9.913,0.647,16.84c0,6.926,0,14.065-0.647,16.842
	C32.837,494.015,25.698,494.015,18.772,494.015L18.772,494.015z"/>
<path d="M242.058,717.301c-6.926,0-14.064,0-16.841-0.647c-0.647-2.775-0.647-9.915-0.647-16.842c0-6.926,0-14.063,0.647-16.84
	c2.776-0.646,9.915-0.646,16.841-0.646s14.065,0,16.84,0.646c0.648,2.776,0.648,9.914,0.648,16.84c0,6.927,0,14.066-0.648,16.842
	C256.123,717.301,248.985,717.301,242.058,717.301L242.058,717.301z"/>
<path d="M18.772,605.659c-6.926,0-14.064,0-16.84-0.647c-0.647-2.775-0.647-9.915-0.647-16.842s0-14.064,0.647-16.839
	c2.775-0.648,9.914-0.648,16.84-0.648s14.065,0,16.841,0.648c0.647,2.774,0.647,9.912,0.647,16.839s0,14.066-0.647,16.842
	C32.837,605.659,25.698,605.659,18.772,605.659L18.772,605.659z"/>
<path d="M130.415,717.301c-6.926,0-14.065,0-16.84-0.647c-0.647-2.775-0.647-9.915-0.647-16.842c0-6.926,0-14.063,0.647-16.84
	c2.775-0.646,9.914-0.646,16.84-0.646c6.927,0,14.065,0,16.841,0.646c0.647,2.776,0.647,9.914,0.647,16.84
	c0,6.927,0,14.066-0.647,16.842C144.479,717.301,137.342,717.301,130.415,717.301L130.415,717.301z"/>
<path d="M18.772,717.301c-6.926,0-14.064,0-16.84-0.647c-0.647-2.775-0.647-9.915-0.647-16.842c0-6.926,0-14.063,0.647-16.84
	c2.775-0.646,9.914-0.646,16.84-0.646s14.065,0,16.841,0.646c0.647,2.776,0.647,9.914,0.647,16.84c0,6.927,0,14.066-0.647,16.842
	C32.837,717.301,25.698,717.301,18.772,717.301L18.772,717.301z"/>
<path d="M576.508,159.565c-6.926,0-14.065,0-16.842-0.647c-0.646-2.776-0.646-9.915-0.646-16.841s0-14.064,0.646-16.84
	c2.776-0.647,9.916-0.647,16.842-0.647c6.927,0,14.064,0,16.84,0.647c0.647,2.775,0.647,9.914,0.647,16.84s0,14.065-0.647,16.841
	C590.572,159.565,583.434,159.565,576.508,159.565L576.508,159.565z"/>
</svg>
