<?xml version="1.0" encoding="utf-8"?>
<!-- Generator: Adobe Illustrator 14.0.0, SVG Export Plug-In . SVG Version: 6.00 Build 43363)  -->
<!DOCTYPE svg PUBLIC "-//W3C//DTD SVG 1.1//EN" "http://www.w3.org/Graphics/SVG/1.1/DTD/svg11.dtd">
<svg version="1.1" id="Layer_1" xmlns="http://www.w3.org/2000/svg" xmlns:xlink="http://www.w3.org/1999/xlink" x="0px" y="0px"
	 width="595.279px" height="841.89px" viewBox="0 0 595.279 841.89" enable-background="new 0 0 595.279 841.89"
	 xml:space="preserve">
<path d="M512.499,412.109c-0.466-1.395-1.86-2.791-3.256-3.721l-81.386-81.386c-3.256-3.255-7.906-5.116-12.092-5.116
	c-4.65,0-8.836,1.86-12.092,5.116c-6.976,6.976-6.976,17.672,0,24.648l52.087,52.087H330.659c-9.767,0-17.672,7.906-17.672,17.672
	c0,9.767,7.905,17.673,17.672,17.673h124.637l-52.087,51.621c-3.256,3.256-5.115,7.906-5.115,12.092
	c0,4.65,1.859,8.836,5.115,12.092s7.906,5.115,12.092,5.115c4.65,0,8.836-1.859,12.557-5.115l81.851-82.316
	c0.466-0.465,1.86-1.861,2.791-3.721c0-0.465,0.465-0.93,0.465-1.395c0,0,0,0,0-0.465l1.396-1.396v-0.465l0.465-0.465v-6.976
	c0-1.86-0.465-3.72-1.396-4.65C513.428,413.504,512.964,413.039,512.499,412.109z"/>
<path d="M264.621,403.272H139.984l52.087-52.087c6.976-6.976,6.976-17.672,0-24.648c-3.256-3.255-7.906-5.116-12.092-5.116
	s-8.836,1.86-12.557,5.116l-85.571,86.036v1.396l-1.396,1.395v0.465l-0.465,0.465v6.512c0,1.859,0.465,3.719,1.395,4.65
	c0,0.465,0.466,0.465,0.466,0.93v1.395l85.571,85.572c3.255,3.256,7.906,5.115,12.092,5.115s8.836-1.859,12.091-5.115
	c6.977-6.977,6.977-17.672,0-24.648l-51.621-52.088h124.637c9.766,0,17.672-7.906,17.672-17.671
	C282.293,411.179,274.386,403.272,264.621,403.272z"/>
<path d="M570.632,123.305H24.648C10.696,123.305,0,134.467,0,147.954v546.448c0,13.951,11.162,24.648,24.648,24.648h546.448
	c13.952,0,24.648-11.162,24.648-24.648V147.954C595.279,134.467,584.118,123.305,570.632,123.305z M570.166,693.472H25.113V148.418
	h545.053V693.472z"/>
</svg>
