<?xml version="1.0" encoding="utf-8"?>
<!-- Generator: Adobe Illustrator 14.0.0, SVG Export Plug-In . SVG Version: 6.00 Build 43363)  -->
<!DOCTYPE svg PUBLIC "-//W3C//DTD SVG 1.1//EN" "http://www.w3.org/Graphics/SVG/1.1/DTD/svg11.dtd">
<svg version="1.1" id="Layer_1" xmlns="http://www.w3.org/2000/svg" xmlns:xlink="http://www.w3.org/1999/xlink" x="0px" y="0px"
	 width="32px" height="32px" viewBox="0 0 32 32" enable-background="new 0 0 32 32" xml:space="preserve">
<path d="M30.675,0H1.325C0.575,0,0,0.6,0,1.325V30.7c0,0.75,0.6,1.325,1.325,1.325H30.7c0.75,0,1.325-0.603,1.325-1.325V1.325
	C32,0.6,31.4,0,30.675,0z M30.65,30.65H1.35V1.35h29.3V30.65z"/>
<path d="M16,6.863c1.35,0,2.443,1.095,2.443,2.443c0,1.35-1.094,2.443-2.443,2.443c-1.35,0-2.443-1.094-2.443-2.443
	C13.557,7.958,14.651,6.863,16,6.863z M18.639,22.953c0,1.033-0.838,1.872-1.871,1.872h-1.534c-1.034,0-1.871-0.839-1.871-1.872
	v-7.794c0-1.033,0.837-1.871,1.871-1.871h1.534c1.033,0,1.871,0.838,1.871,1.871V22.953z"/>
</svg>
