<?xml version="1.0" encoding="utf-8"?>
<!-- Generator: Adobe Illustrator 21.1.0, SVG Export Plug-In . SVG Version: 6.00 Build 0)  -->
<svg version="1.1" id="Layer_1" xmlns="http://www.w3.org/2000/svg" xmlns:xlink="http://www.w3.org/1999/xlink" x="0px" y="0px"
	 viewBox="0 0 128 128" style="enable-background:new 0 0 128 128;" xml:space="preserve">
<title>arrows_tnp</title>
<path d="M122.7,66.7v58.7c0,1.5-1.2,2.7-2.7,2.7H2.7c-1.5,0-2.7-1.2-2.7-2.7V8c0-1.5,1.2-2.7,2.7-2.7h56c1.5,0,2.7,1.2,2.7,2.7
	s-1.2,2.7-2.7,2.7H5.3v112h112v-56c0-1.5,1.2-2.7,2.7-2.7S122.7,65.2,122.7,66.7z M125.3,0h-40c-1.5,0-2.7,1.2-2.7,2.7
	s1.2,2.7,2.7,2.7h33.6L62.1,62.1c-1.1,1-1.2,2.6-0.3,3.8c1,1.1,2.6,1.2,3.8,0.3c0.1-0.1,0.2-0.2,0.3-0.3l56.8-56.8V40
	c0,1.5,1.2,2.7,2.7,2.7c1.5,0,2.7-1.2,2.7-2.7V2.7C128,1.2,126.8,0,125.3,0z"/>
</svg>
