<?xml version="1.0" encoding="utf-8"?>
<!-- Generator: Adobe Illustrator 21.1.0, SVG Export Plug-In . SVG Version: 6.00 Build 0)  -->
<svg version="1.1" id="Layer_1" xmlns="http://www.w3.org/2000/svg" xmlns:xlink="http://www.w3.org/1999/xlink" x="0px" y="0px"
	 viewBox="0 0 21 21" style="enable-background:new 0 0 21 21;" xml:space="preserve">
<g>
	<g>
		<g>
			<path d="M19.4,1.8h-3.2H1.6C1.3,1.8,1,2,1,2.4S1.3,3,1.6,3h10.9v2.8H1.6C1.3,5.7,1,6,1,6.3S1.3,7,1.6,7h10.9v2.8H1.6
				C1.3,9.7,1,10,1,10.3s0.3,0.6,0.6,0.6h10.9v2.8H1.6C1.3,13.7,1,14,1,14.3c0,0.3,0.3,0.6,0.6,0.6h10.9v2.8H1.6
				C1.3,17.7,1,18,1,18.3s0.3,0.6,0.6,0.6h14.5h3.2c0.4,0,0.6-0.3,0.6-0.6v-16C20,2,19.7,1.8,19.4,1.8z M15.5,17.9h-1.8v-2.8h1.8
				V17.9z M15.5,13.9h-1.8v-2.8h1.8V13.9z M15.5,9.8h-1.8V7.1h1.8V9.8z M15.5,5.8h-1.8V3h1.8V5.8z M18.7,17.9h-2V3h2V17.9z"/>
			<circle cx="10.7" cy="12.5" r="0.8"/>
			<circle cx="10.7" cy="8.4" r="0.8"/>
		</g>
	</g>
</g>
</svg>
