<?xml version="1.0" encoding="utf-8"?>
<!-- Generator: Adobe Illustrator 21.1.0, SVG Export Plug-In . SVG Version: 6.00 Build 0)  -->
<svg version="1.1"
	 id="Layer_1" xmlns:cc="http://creativecommons.org/ns#" xmlns:dc="http://purl.org/dc/elements/1.1/" xmlns:inkscape="http://www.inkscape.org/namespaces/inkscape" xmlns:rdf="http://www.w3.org/1999/02/22-rdf-syntax-ns#" xmlns:sodipodi="http://sodipodi.sourceforge.net/DTD/sodipodi-0.dtd" xmlns:svg="http://www.w3.org/2000/svg"
	 xmlns="http://www.w3.org/2000/svg" xmlns:xlink="http://www.w3.org/1999/xlink" x="0px" y="0px" viewBox="0 0 128.1 128.1"
	 style="enable-background:new 0 0 128.1 128.1;" xml:space="preserve">
<path d="M32.1,22.1v84h64v-66h-16c-1.1,0-2-0.9-2-2v-16C78.1,22.1,32.1,22.1,32.1,22.1z M82.1,22.1v14h14L82.1,22.1z M73.1,63.6
	c0.6,0,1.3,0.1,1.7,0.6l9.3,8.1c0.9,0.8,1,2.3,0.2,3.2c-0.1,0.1-0.1,0.1-0.2,0.2l-9.3,8.1c-0.9,0.8-2.4,0.7-3.2-0.2
	c-0.8-0.9-0.7-2.4,0.2-3.2l0,0l4.6-4.1H45.6c-1.3,0.1-2.3-0.9-2.4-2.2c-0.1-1.3,0.9-2.3,2.2-2.4c0.1,0,0.1,0,0.2,0h30.9l-4.6-4.1
	c-0.9-0.8-1.2-2.3-0.3-3.2C71.9,63.9,72.4,63.7,73.1,63.6z"/>
<path d="M122.7,0H5.3C2.3,0,0,2.4,0,5.3v117.5c0,3,2.4,5.3,5.3,5.3h117.5c3,0,5.3-2.4,5.3-5.3V5.3C128,2.4,125.6,0,122.7,0z
	 M122.6,122.6H5.4V5.4h117.2V122.6z"/>
</svg>
