<svg xmlns="http://www.w3.org/2000/svg" data-name="Layer 1" viewBox="0 0 100 125" x="0px" y="0px"><title>150all</title><rect x="38.77" y="39.95" width="6" height="33.04"/><rect x="55.23" y="39.95" width="6" height="33.04"/><path d="M56.76,8.2H43.24a8,8,0,0,0-8,8v4.93H15.91a3,3,0,0,0,0,6h5.33l2.91,52.38a13,13,0,0,0,13,12.28H62.88a13,13,0,0,0,13-12.28l2.91-52.38h5.33a3,3,0,0,0,0-6H64.76V16.2A8,8,0,0,0,56.76,8.2Zm-15.51,8a2,2,0,0,1,2-2H56.76a2,2,0,0,1,2,2v4.93H41.24ZM72.76,27.13,69.87,79.19a7,7,0,0,1-7,6.61H37.12a7,7,0,0,1-7-6.61L27.24,27.13H72.76Z"/><text x="0" y="115" fill="#000000" font-size="5px" font-weight="bold" font-family="'Helvetica Neue', Helvetica, Arial-Unicode, Arial, Sans-serif">Created by Satisfactory</text><text x="0" y="120" fill="#000000" font-size="5px" font-weight="bold" font-family="'Helvetica Neue', Helvetica, Arial-Unicode, Arial, Sans-serif">from the Noun Project</text></svg>