<?xml version="1.0" encoding="utf-8"?>
<!-- Generator: Adobe Illustrator 14.0.0, SVG Export Plug-In . SVG Version: 6.00 Build 43363)  -->
<!DOCTYPE svg PUBLIC "-//W3C//DTD SVG 1.1//EN" "http://www.w3.org/Graphics/SVG/1.1/DTD/svg11.dtd">
<svg version="1.1"
	 id="Layer_1" xmlns:dc="http://purl.org/dc/elements/1.1/" xmlns:cc="http://creativecommons.org/ns#" xmlns:rdf="http://www.w3.org/1999/02/22-rdf-syntax-ns#" xmlns:sodipodi="http://sodipodi.sourceforge.net/DTD/sodipodi-0.dtd" xmlns:svg="http://www.w3.org/2000/svg" xmlns:inkscape="http://www.inkscape.org/namespaces/inkscape"
	 xmlns="http://www.w3.org/2000/svg" xmlns:xlink="http://www.w3.org/1999/xlink" x="0px" y="0px" width="100px" height="100px"
	 viewBox="0 0 100 100" enable-background="new 0 0 100 100" xml:space="preserve">
<path d="M45.561,28.625L34.556,39.6v14.127h-6.918c-0.905,0-1.638,0.732-1.638,1.639v3.795c0,0.83,0.609,1.5,1.408,1.607v1.424
	c0,0.391,0.313,0.719,0.704,0.719s0.719-0.328,0.719-0.719v-1.408h5.648v10.592h1.408V60.783h0.704v9.184H38v-9.184h0.704v10.592
	h1.408V60.783h0.719v10.592h1.408V60.783h0.704v9.184h1.408v-9.184h0.704v9.184h1.423v-9.184h0.704v10.592h1.408V60.783h0.704v9.888
	h1.408v-9.888h0.704v8.479h1.424v-8.479h0.703v9.184h1.408v-9.184h0.705v9.184h1.408v-9.184h0.703v9.184h1.424v-9.184h0.704v8.479
	h1.408v-8.479H62v9.888h1.408v-9.888h0.704v9.184h1.423v-9.184h5.648v1.408c0,0.391,0.313,0.719,0.704,0.719
	s0.704-0.328,0.704-0.719v-1.424C73.392,60.66,74,59.99,74,59.16v-3.795c0-0.905-0.732-1.639-1.638-1.639h-6.919V28.625H45.561z
	 M48.071,31.334H62.75v22.393h-3.857v-1.928h-17.77v1.928H37.25V42.14h10.821V31.334z M45.377,32.36v7.071h-7.163L45.377,32.36z
	 M51.929,34.028v2.709h6.964v-2.709H51.929z M51.929,39.431v2.709h6.964v-2.709H51.929z M41.123,46.396v2.694h17.77v-2.694H41.123z
	 M63.408,55.84c0.779,0,1.424,0.643,1.424,1.423c0,0.779-0.645,1.408-1.424,1.408S62,58.042,62,57.263
	C62,56.482,62.629,55.84,63.408,55.84z M66.943,55.84c0.78,0,1.408,0.643,1.408,1.423c0,0.779-0.628,1.408-1.408,1.408
	c-0.779,0-1.408-0.629-1.408-1.408C65.535,56.482,66.164,55.84,66.943,55.84z M70.479,55.84c0.78,0,1.408,0.643,1.408,1.423
	c0,0.779-0.628,1.408-1.408,1.408c-0.779,0-1.423-0.629-1.423-1.408C69.057,56.482,69.7,55.84,70.479,55.84z"/>
<path d="M50.705,50c0,0.39-0.316,0.706-0.705,0.706c-0.39,0-0.706-0.316-0.706-0.706S49.61,49.294,50,49.294
	C50.389,49.294,50.705,49.61,50.705,50z"/>
<path d="M50.705,50c0,0.39-0.315,0.706-0.706,0.706c-0.39,0-0.706-0.316-0.706-0.706S49.61,49.294,50,49.294
	C50.39,49.294,50.705,49.61,50.705,50z"/>
<path d="M50.706,50c0,0.39-0.316,0.706-0.706,0.706c-0.39,0-0.706-0.316-0.706-0.706S49.61,49.294,50,49.294
	C50.39,49.294,50.706,49.61,50.706,50z"/>
</svg>
