<svg xmlns="http://www.w3.org/2000/svg" xmlns:xlink="http://www.w3.org/1999/xlink" version="1.1" x="0px" y="0px" viewBox="0 0 100 125" enable-background="new 0 0 100 100" xml:space="preserve"><path d="M81.6,9.6L81.6,9.6L66.3,27.2c-5.5-2.3-11.1-3.4-16.8-3.2c-24.3,0.6-41,23.1-41.7,24.1l-1.4,1.8L8,51.7  c6.8,8.3,13.8,14.5,21.1,18.5L13.9,87.7l4.5,3.9l1.1-1.2l0,0l67.7-78.1l-4.5-3.9L81.6,9.6z M43.5,44.1c2.6-2.9,6.7-3.7,10-2.2  L42.8,54.4C40.8,51.3,40.9,47.1,43.5,44.1z M14.1,49.8c4.3-5.1,18.1-19.4,35.7-19.9c4.2-0.1,8.3,0.6,12.4,2.1l-4.7,5.4  c-5.9-3.6-13.8-2.5-18.5,2.9c-4.7,5.4-4.7,13.4-0.3,18.8l-5.7,6.5C26.6,62.3,20.3,57,14.1,49.8z M92,47.9l1.4,1.8l-1.4,1.8  c-0.7,1-17.5,23.5-41.7,24.1c-0.3,0-0.7,0-1,0c-2.9,0-5.8-0.3-8.7-1l4.5-5.2c1.4,0.2,2.8,0.3,4.1,0.3c0.3,0,0.5,0,0.8,0  c17.6-0.4,31.3-14.7,35.7-19.9c-4.3-5-8.6-9.1-13-12.2l3.9-4.5C82,36.9,87.1,41.8,92,47.9z"/><text x="0" y="115" fill="#000000" font-size="5px" font-weight="bold" font-family="'Helvetica Neue', Helvetica, Arial-Unicode, Arial, Sans-serif">Created by Gregor Cresnar</text><text x="0" y="120" fill="#000000" font-size="5px" font-weight="bold" font-family="'Helvetica Neue', Helvetica, Arial-Unicode, Arial, Sans-serif">from the Noun Project</text></svg>