<?xml version="1.0" encoding="utf-8"?>
<!-- Generator: Adobe Illustrator 14.0.0, SVG Export Plug-In . SVG Version: 6.00 Build 43363)  -->
<!DOCTYPE svg PUBLIC "-//W3C//DTD SVG 1.1//EN" "http://www.w3.org/Graphics/SVG/1.1/DTD/svg11.dtd">
<svg version="1.1"
	 id="Layer_1" xmlns:dc="http://purl.org/dc/elements/1.1/" xmlns:cc="http://creativecommons.org/ns#" xmlns:rdf="http://www.w3.org/1999/02/22-rdf-syntax-ns#" xmlns:sodipodi="http://sodipodi.sourceforge.net/DTD/sodipodi-0.dtd" xmlns:svg="http://www.w3.org/2000/svg" xmlns:inkscape="http://www.inkscape.org/namespaces/inkscape"
	 xmlns="http://www.w3.org/2000/svg" xmlns:xlink="http://www.w3.org/1999/xlink" x="0px" y="0px" width="184.5px" height="48px"
	 viewBox="0 0 184.5 48" enable-background="new 0 0 184.5 48" xml:space="preserve">
<path fill="none" stroke="#000000" d="M10.25,41.25h164 M10.25,41.25v-0.775 M37.583,41.25v-2.775 M64.917,41.25v-2.775
	 M92.25,41.25v-2.775 M119.583,41.25v-2.775 M146.917,41.25v-2.775 M174.25,41.75v-3.275 M10.25,41.25v-31 M14.35,41.25h-4.1
	 M13.35,35.05h-3.1 M10.25,28.85h3.1 M13.35,22.65h-3.1 M10.25,16.45h3.1 M10.25,10.25h3.1 M51.25,35.05l-28.026-0.965
	 M78.583,25.75l-27.333,9.3 M105.917,28.85l-27.334-3.1 M133.25,14.9l-27.333,13.95 M160.583,33.5L133.25,14.9 M20.224,37.085h6v-6
	h-6V37.085z M48.25,38.05h6v-6h-6V38.05z M75.583,28.75h6v-6h-6V28.75z M102.917,31.85h6v-6h-6V31.85z M130.25,17.9h6v-6h-6V17.9z
	 M157.583,36.5h6v-6h-6V36.5z"/>
</svg>
