<svg xmlns="http://www.w3.org/2000/svg" xmlns:xlink="http://www.w3.org/1999/xlink" viewBox="0 0 100 125" version="1.1" x="0px" y="0px"><title>3.8</title><desc>Created with Sketch.</desc><g stroke="none" stroke-width="1" fill="none" fill-rule="evenodd"><g fill="#000000"><path d="M45,46 L37,46 L37,46 C34.790861,46 33,47.790861 33,50 L33,50 L33,50 C33,52.209139 34.790861,54 37,54 L45,54 L45,54 C45.5522847,54 46,54.4477153 46,55 L46,63 L46,63 C46,65.209139 47.790861,67 50,67 L50,67 L50,67 C52.209139,67 54,65.209139 54,63 L54,55 L54,55 C54,54.4477153 54.4477153,54 55,54 L63,54 L63,54 C65.209139,54 67,52.209139 67,50 L67,50 L67,50 C67,47.790861 65.209139,46 63,46 L55,46 L55,46 C54.4477153,46 54,45.5522847 54,45 L54,37 L54,37 C54,34.790861 52.209139,33 50,33 L50,33 L50,33 C47.790861,33 46,34.790861 46,37 L46,45 L46,45 C46,45.5522847 45.5522847,46 45,46 Z" transform="translate(50.000000, 50.000000) rotate(45.000000) translate(-50.000000, -50.000000) "/></g></g><text x="0" y="115" fill="#000000" font-size="5px" font-weight="bold" font-family="'Helvetica Neue', Helvetica, Arial-Unicode, Arial, Sans-serif">Created by Landan Lloyd</text><text x="0" y="120" fill="#000000" font-size="5px" font-weight="bold" font-family="'Helvetica Neue', Helvetica, Arial-Unicode, Arial, Sans-serif">from the Noun Project</text></svg>