<svg xmlns="http://www.w3.org/2000/svg" xmlns:xlink="http://www.w3.org/1999/xlink" version="1.0" x="0px" y="0px" viewBox="0 0 100 125" enable-background="new 0 0 100 100" xml:space="preserve"><path d="M50.2203865,5.1593437c-24.7323475,0-44.7804604,20.048584-44.7804604,44.7796135  c0,24.7309418,20.0481148,44.7799759,44.7804604,44.7799759C74.9517899,94.7189331,95,74.669899,95,49.9389572  C95,25.2079277,74.9517899,5.1593437,50.2203865,5.1593437z M50.2203865,14.2506275  c5.2706718,0,9.5443916,4.2727814,9.5443916,9.5434551c0,5.271143-4.2737198,9.5443764-9.5443916,9.5443764  s-9.5443954-4.2732334-9.5443954-9.5443764C40.6759911,18.5234089,44.9497108,14.2506275,50.2203865,14.2506275z   M60.5262184,77.0981445c0,4.037735-3.2731094,7.3108444-7.3113098,7.3108444H47.224926  c-4.0382042,0-7.309433-3.2731094-7.309433-7.3108444v-30.442894c0-4.037735,3.2712288-7.3099022,7.309433-7.3099022h5.9899826  c4.0382004,0,7.3113098,3.2721672,7.3113098,7.3099022V77.0981445z"/><text x="0" y="115" fill="#000000" font-size="5px" font-weight="bold" font-family="'Helvetica Neue', Helvetica, Arial-Unicode, Arial, Sans-serif">Created by Alex Tai</text><text x="0" y="120" fill="#000000" font-size="5px" font-weight="bold" font-family="'Helvetica Neue', Helvetica, Arial-Unicode, Arial, Sans-serif">from the Noun Project</text></svg>