<svg xmlns:dc="http://purl.org/dc/elements/1.1/" xmlns:cc="http://creativecommons.org/ns#" xmlns:rdf="http://www.w3.org/1999/02/22-rdf-syntax-ns#" xmlns:svg="http://www.w3.org/2000/svg" xmlns="http://www.w3.org/2000/svg" xmlns:sodipodi="http://sodipodi.sourceforge.net/DTD/sodipodi-0.dtd" xmlns:inkscape="http://www.inkscape.org/namespaces/inkscape" version="1.1" x="0px" y="0px" viewBox="0 0 100 125"><g transform="translate(0,-952.36218)"><path style="text-indent:0;text-transform:none;direction:ltr;block-progression:tb;baseline-shift:baseline;color:#000000;enable-background:accumulate;" d="m 50.000003,961.36217 c -12.15341,0 -22,9.84663 -22,22.00003 l 0,12 -6.000005,0 c -3.289407,0 -6,2.7106 -6,6 l 0,36 c 0,3.2894 2.710593,6 6,6 l 56.000004,0 c 3.28941,0 6,-2.7106 6,-6 l 0,-36 c 0,-3.2894 -2.71059,-6 -6,-6 l -6,0 0,-12 c 0,-12.1534 -9.846589,-22.00003 -22,-22.00003 z m 0,4.00003 c 10.00659,0 17.999999,7.9934 17.999999,18 l 0,12 -36,0 0,-12 c 0,-10.0066 7.9934,-18 18,-18 z m -28.000005,34 56.000004,0 c 1.1426,0 2,0.8574 2,2 l 0,36 c 0,1.1426 -0.8574,2 -2,2 l -56.000005,0 c -1.142596,0 -2,-0.8574 -2,-2 l 0,-36 c 0,-1.1426 0.857404,-2 2,-2 z m 28.000005,12 c -4.39459,0 -8,3.6054 -8,8 0,4.3946 3.60541,8 8,8 4.39459,0 7.999999,-3.6054 7.999999,-8 0,-4.3946 -3.60541,-8 -8,-8 z m 0,4 c 2.232829,0 3.999999,1.7672 3.999999,4 0,2.2328 -1.76717,4 -4,4 -2.23284,0 -4,-1.7672 -4,-4 0,-2.2328 1.76716,-4 4,-4 z" fill="#000000" fill-opacity="1" stroke="none" marker="none" visibility="visible" display="inline" overflow="visible"/></g><text x="0" y="115" fill="#000000" font-size="5px" font-weight="bold" font-family="'Helvetica Neue', Helvetica, Arial-Unicode, Arial, Sans-serif">Created by Aya Sofya</text><text x="0" y="120" fill="#000000" font-size="5px" font-weight="bold" font-family="'Helvetica Neue', Helvetica, Arial-Unicode, Arial, Sans-serif">from the Noun Project</text></svg>