<svg xmlns="http://www.w3.org/2000/svg" data-name="Layer 1" viewBox="0 0 96 120" x="0px" y="0px"><title>Artboard 85</title><path d="M48,11C22.63574,11,2,25.93848,2,44.30078a25.06668,25.06668,0,0,0,2.07617,9.95215,32.05117,32.05117,0,0,0,9.31738,12.01855,44.84955,44.84955,0,0,0,9.76172,6.07813,13.66894,13.66894,0,0,1-4.64843,6.69824A1.9995,1.9995,0,0,0,18.5459,82.29,14.77318,14.77318,0,0,0,27.09961,85a15.158,15.158,0,0,0,13.18652-7.8623A63.73031,63.73031,0,0,0,48,77.60156c25.36426,0,46-14.93847,46-33.30078S73.36426,11,48,11Zm0,62.60156a58.9329,58.9329,0,0,1-8.57422-.61621,1.98939,1.98939,0,0,0-2.125,1.17871A11.21354,11.21354,0,0,1,27.09961,81a10.8102,10.8102,0,0,1-3.97754-.75195,18.58514,18.58514,0,0,0,4.36914-8.59668,1.99961,1.99961,0,0,0-1.17187-2.27246A41.82334,41.82334,0,0,1,15.94141,63.1875,28.11712,28.11712,0,0,1,7.751,52.67383,21.0991,21.0991,0,0,1,6,44.30078C6,28.14453,24.84082,15,48,15S90,28.14453,90,44.30078,71.15918,73.60156,48,73.60156Z"/><circle cx="48" cy="60.54395" r="4"/><rect x="44" y="22.71289" width="8" height="30.44922" rx="3.8125" ry="3.8125"/><text x="0" y="111" fill="#000000" font-size="5px" font-weight="bold" font-family="'Helvetica Neue', Helvetica, Arial-Unicode, Arial, Sans-serif">Created by Adi Kurniawan</text><text x="0" y="116" fill="#000000" font-size="5px" font-weight="bold" font-family="'Helvetica Neue', Helvetica, Arial-Unicode, Arial, Sans-serif">from the Noun Project</text></svg>