<svg xmlns="http://www.w3.org/2000/svg" xmlns:xlink="http://www.w3.org/1999/xlink" version="1.1" x="0px" y="0px" viewBox="0 0 1024 1280" style="enable-background:new 0 0 1024 1024;" xml:space="preserve"><g><g><g><path d="M887.4,937.8c-6.7,0-13.5,0-20.2,0c-18.3,0-36.7,0-55,0c-27.3,0-54.5,0-81.8,0c-33.1,0-66.2,0-99.3,0     c-36.2,0-72.4,0-108.6,0c-36.5,0-72.9,0-109.4,0c-33.9,0-67.8,0-101.7,0c-28.6,0-57.2,0-85.8,0c-20.2,0-40.5,0-60.7,0     c-9.2,0-18.3,0-27.5,0c-3,0-6.1-0.2-9.1-0.5c2.7,0.4,5.3,0.7,8,1.1c-5.8-0.8-11.4-2.3-16.9-4.6c2.4,1,4.8,2,7.2,3     c-3.7-1.6-7.2-3.4-10.5-5.6c-0.7-0.5-1.4-1-2.2-1.5c-3.9-2.6,5,4.2,2.4,1.9c-1.4-1.4-3-2.6-4.4-4c-1.2-1.2-2.4-2.6-3.6-3.9     c-3.5-3.7,3.5,5,1.8,2.5c-0.5-0.7-1-1.4-1.5-2.2c-2.4-3.5-4.3-7.2-6-11c1,2.4,2,4.8,3,7.2c-2.2-5.5-3.8-11.1-4.6-16.9     c0.4,2.7,0.7,5.3,1.1,8c-1.1-9.1-0.5-18.5-0.5-27.7c0-18.7,0-37.5,0-56.2c0-28.1,0-56.1,0-84.2c0-34.6,0-69.1,0-103.7     c0-37.8,0-75.6,0-113.4c0-38.1,0-76.3,0-114.4c0-35.7,0-71.3,0-107c0-29.9,0-59.8,0-89.6c0-21.3,0-42.6,0-63.8     c0-9.7,0-19.4,0-29.1c0-3.1,0.2-6.1,0.5-9.1c-0.4,2.7-0.7,5.3-1.1,8c0.8-5.8,2.3-11.4,4.6-16.9c-1,2.4-2,4.8-3,7.2     c1.6-3.7,3.4-7.2,5.6-10.5c0.5-0.7,1-1.4,1.5-2.2c2.6-3.9-4.2,5-1.9,2.4c1.4-1.4,2.6-3,4-4.4c1.2-1.2,2.6-2.4,3.9-3.6     c3.7-3.5-5,3.5-2.5,1.8c0.7-0.5,1.4-1,2.2-1.5c3.5-2.4,7.2-4.3,11-6c-2.4,1-4.8,2-7.2,3c5.5-2.2,11.1-3.8,16.9-4.6     c-2.7,0.4-5.3,0.7-8,1.1c7-0.8,14.1-0.5,21.1-0.5c12.6,0,25.3,0,37.9,0c42.6,0,85.2,0,127.8,0c52.1,0,104.1,0,156.2,0     c45.3,0,90.7,0,136,0c22,0,44,0.5,66,0c0.3,0,0.6,0,0.9,0c-7.1-2.9-14.1-5.9-21.2-8.8c9.2,9.2,18.4,18.4,27.6,27.6     c22.2,22.2,44.4,44.4,66.6,66.6c26.7,26.7,53.5,53.5,80.2,80.2c23.1,23.1,46.2,46.2,69.4,69.4c11.3,11.3,22.2,22.9,33.8,33.8     c0.2,0.2,0.3,0.3,0.5,0.5c-2.9-7.1-5.9-14.1-8.8-21.2c0,19.2,0,38.3,0,57.5c0,45.7,0,91.5,0,137.2c0,55.1,0,110.2,0,165.3     c0,47.3,0,94.7,0,142c0,22,0.2,44.1,0,66.1c0,3-0.2,5.9-0.5,8.9c0.4-2.7,0.7-5.3,1.1-8c-0.8,5.8-2.3,11.4-4.6,16.9     c1-2.4,2-4.8,3-7.2c-1.6,3.7-3.4,7.2-5.6,10.5c-0.5,0.7-1,1.4-1.5,2.2c-2.6,3.9,4.2-5,1.9-2.4c-1.4,1.4-2.6,3-4,4.4     c-1.2,1.2-2.6,2.4-3.9,3.6c-3.7,3.5,5-3.5,2.5-1.8c-0.7,0.5-1.4,1-2.2,1.5c-3.5,2.4-7.2,4.3-11,6c2.4-1,4.8-2,7.2-3     c-5.5,2.3-11.1,3.8-16.9,4.6c2.7-0.4,5.3-0.7,8-1.1C892.9,937.6,890.1,937.8,887.4,937.8c-15.7,0.2-30.7,13.7-30,30     c0.7,16.1,13.2,30.2,30,30c34.6-0.4,69-20,84.4-51.6c7.1-14.7,10.6-30,10.6-46.3c0-15.1,0-30.1,0-45.2c0-28.9,0-57.9,0-86.8     c0-36.7,0-73.4,0-110.1c0-38.7,0-77.4,0-116c0-34.9,0-69.8,0-104.8c0-25,0-50,0-74.9c0-7,0-14,0-21c0-10.5-0.5-19.4-8.8-28.2     c-9.2-9.8-19-19-28.5-28.5c-22.8-22.8-45.6-45.6-68.4-68.4c-27.2-27.2-54.4-54.4-81.6-81.6c-23.1-23.1-46.2-46.2-69.3-69.3     c-10-10-19.8-20.7-30.2-30.2c-8.7-7.9-17.3-8.8-27.5-8.8c-7,0-14,0-21,0c-25.6,0-51.2,0-76.9,0c-35.4,0-70.8,0-106.2,0     c-38.9,0-77.7,0-116.6,0c-35.4,0-70.9,0-106.3,0c-25.7,0-51.3,0-77,0c-13.2,0-26.7-0.7-39.8,1.1c-36.5,4.9-65.7,29.9-77.9,64.4     c-3.6,10.3-4.7,21.5-4.7,32.4c0,12.1,0,24.2,0,36.3c0,23.4,0,46.8,0,70.3c0,31.8,0,63.6,0,95.4c0,36.8,0,73.6,0,110.4     c0,39,0,78,0,117c0,37.7,0,75.4,0,113.2c0,33.6,0,67.3,0,100.9c0,26.2,0,52.3,0,78.5c0,15.8,0,31.6,0,47.4c0,3,0,5.9,0,8.9     c0.2,25.2,10,49.7,27.9,67.6c17.9,17.9,42.4,27.7,67.6,27.9c3.1,0,6.2,0,9.2,0c16.3,0,32.7,0,49,0c26.9,0,53.8,0,80.8,0     c34.3,0,68.7,0,103,0c38.1,0,76.2,0,114.3,0c38.8,0,77.6,0,116.4,0c35.8,0,71.6,0,107.3,0c29.7,0,59.4,0,89.1,0     c20,0,39.9,0,59.9,0c7,0,14.1,0,21.1,0c15.7,0,30.7-13.8,30-30C916.6,951.6,904.2,937.8,887.4,937.8z"/></g></g><g><g><path d="M657.3,679.4c0,7.9-0.6,15.7-1.6,23.6c0.4-2.7,0.7-5.3,1.1-8c-2.1,15.2-6.1,29.9-11.9,44.1     c1-2.4,2-4.8,3-7.2c-4.4,10.3-9.6,20.2-15.9,29.6c-1.6,2.4-3.2,4.7-4.9,7c-1.3,1.8-4.8,5.6,1.5-1.9c-0.8,1-1.6,2-2.5,3.1     c-3.6,4.4-7.4,8.6-11.4,12.6c-3.9,3.9-7.9,7.5-12.1,11c-0.7,0.6-2.7,2.8-3.6,2.9c1.3-0.1,6.6-5,1.9-1.5c-2.1,1.6-4.2,3.1-6.4,4.5     c-9.5,6.4-19.6,11.8-30.1,16.2c2.4-1,4.8-2,7.2-3c-14.1,5.9-28.9,9.9-44.1,11.9c2.7-0.4,5.3-0.7,8-1.1c-15.7,2-31.5,2-47.1,0     c2.7,0.4,5.3,0.7,8,1.1c-15.2-2.1-29.9-6.1-44.1-11.9c2.4,1,4.8,2,7.2,3c-10.3-4.4-20.2-9.6-29.6-15.9c-2.4-1.6-4.7-3.2-7-4.9     c-1.8-1.3-5.6-4.8,1.9,1.5c-1-0.8-2-1.6-3.1-2.5c-4.4-3.6-8.6-7.4-12.6-11.4c-3.9-3.9-7.5-7.9-11-12.1c-0.6-0.7-2.8-2.7-2.9-3.6     c0.1,1.3,5,6.6,1.5,1.9c-1.6-2.1-3.1-4.2-4.5-6.4c-6.4-9.5-11.8-19.6-16.2-30.1c1,2.4,2,4.8,3,7.2c-5.9-14.1-9.9-28.9-11.9-44.1     c0.4,2.7,0.7,5.3,1.1,8c-2-15.7-2-31.5,0-47.1c-0.4,2.7-0.7,5.3-1.1,8c2.1-15.2,6.1-29.9,11.9-44.1c-1,2.4-2,4.8-3,7.2     c4.4-10.3,9.6-20.2,15.9-29.6c1.6-2.4,3.2-4.7,4.9-7c1.3-1.8,4.8-5.6-1.5,1.9c0.8-1,1.6-2,2.5-3.1c3.6-4.4,7.4-8.6,11.4-12.6     c3.9-3.9,7.9-7.5,12.1-11c0.7-0.6,2.7-2.8,3.6-2.9c-1.3,0.1-6.6,5-1.9,1.5c2.1-1.6,4.2-3.1,6.4-4.5c9.5-6.4,19.6-11.8,30.1-16.2     c-2.4,1-4.8,2-7.2,3c14.1-5.9,28.9-9.9,44.1-11.9c-2.7,0.4-5.3,0.7-8,1.1c15.7-2,31.5-2,47.1,0c-2.7-0.4-5.3-0.7-8-1.1     c15.2,2.1,29.9,6.1,44.1,11.9c-2.4-1-4.8-2-7.2-3c10.3,4.4,20.2,9.6,29.6,15.9c2.4,1.6,4.7,3.2,7,4.9c1.8,1.3,5.6,4.8-1.9-1.5     c1,0.8,2,1.6,3.1,2.5c4.4,3.6,8.6,7.4,12.6,11.4c3.9,3.9,7.5,7.9,11,12.1c0.6,0.7,2.8,2.7,2.9,3.6c-0.1-1.3-5-6.6-1.5-1.9     c1.6,2.1,3.1,4.2,4.5,6.4c6.4,9.5,11.8,19.6,16.2,30.1c-1-2.4-2-4.8-3-7.2c5.9,14.1,9.9,28.9,11.9,44.1c-0.4-2.7-0.7-5.3-1.1-8     C656.7,663.7,657.2,671.5,657.3,679.4c0.1,15.7,13.8,30.7,30,30c16.2-0.7,30.1-13.2,30-30c-0.2-41.4-12.6-83.4-36.8-117.2     c-25.3-35.3-59.4-61.5-100.3-76.4c-78.2-28.6-171.8-3.2-224.7,61c-28.1,34.1-44.7,74.5-48.2,118.6c-3.3,41.5,7.4,84.7,29,120.2     c20.8,34.2,52.1,63.1,88.7,79.6c41,18.4,85.2,23.8,129.3,15c80.6-16,147.7-85.2,159.9-166.6c1.7-11.4,3-22.7,3-34.2     c0.1-15.7-13.8-30.7-30-30C671,650.2,657.3,662.6,657.3,679.4z"/></g></g><g><g><path d="M625.1,325.7c-14.7,0-29.4,0-44.1,0c-35.3,0-70.6,0-105.9,0c-42.7,0-85.4,0-128.1,0     c-36.9,0-73.8,0-110.8,0c-17.9,0-35.9-0.5-53.8,0c-0.3,0-0.5,0-0.8,0c10,10,20,20,30,30c0-21.3,0-42.6,0-63.8     c0-34.1,0-68.2,0-102.3c0-7.8,0-15.6,0-23.3c-10,10-20,20-30,30c14.7,0,29.4,0,44.1,0c35.3,0,70.6,0,105.9,0     c42.7,0,85.4,0,128.1,0c36.9,0,73.8,0,110.8,0c17.9,0,35.9,0.5,53.8,0c0.3,0,0.5,0,0.8,0c-10-10-20-20-30-30     c0,21.3,0,42.6,0,63.8c0,34.1,0,68.2,0,102.3c0,7.8,0,15.6,0,23.3c0,15.7,13.8,30.7,30,30c16.3-0.7,30-13.2,30-30     c0-21.3,0-42.6,0-63.8c0-34.1,0-68.2,0-102.3c0-7.8,0-15.6,0-23.3c0-16.2-13.7-30-30-30c-14.7,0-29.4,0-44.1,0     c-35.3,0-70.6,0-105.9,0c-42.7,0-85.4,0-128.1,0c-36.9,0-73.8,0-110.8,0c-17.9,0-35.9-0.4-53.8,0c-0.3,0-0.5,0-0.8,0     c-16.2,0-30,13.7-30,30c0,21.3,0,42.6,0,63.8c0,34.1,0,68.2,0,102.3c0,7.8,0,15.6,0,23.3c0,16.2,13.7,30,30,30     c14.7,0,29.4,0,44.1,0c35.3,0,70.6,0,105.9,0c42.7,0,85.4,0,128.1,0c36.9,0,73.8,0,110.8,0c17.9,0,35.9,0.4,53.8,0     c0.3,0,0.5,0,0.8,0c15.7,0,30.7-13.8,30-30C654.4,339.4,641.9,325.7,625.1,325.7z"/></g></g></g><text x="0" y="1039" fill="#000000" font-size="5px" font-weight="bold" font-family="'Helvetica Neue', Helvetica, Arial-Unicode, Arial, Sans-serif">Created by shashank singh</text><text x="0" y="1044" fill="#000000" font-size="5px" font-weight="bold" font-family="'Helvetica Neue', Helvetica, Arial-Unicode, Arial, Sans-serif">from the Noun Project</text></svg>