<svg xmlns="http://www.w3.org/2000/svg" xmlns:xlink="http://www.w3.org/1999/xlink" version="1.1" x="0px" y="0px" viewBox="0 0 100 125" enable-background="new 0 0 100 100" xml:space="preserve"><path d="M54.3,95.2c18.2-2,32.8-16.6,34.9-34.8C92,36.5,73.5,16.2,50.2,16V5.3c0-0.6-0.7-0.9-1.2-0.5L27,20.9  c-0.4,0.3-0.4,0.8,0,1.1l22,16.2c0.5,0.4,1.2,0,1.2-0.5V26.9c16.3,0.3,29.4,14.1,28.3,30.7c-1,14.3-12.6,25.8-26.8,26.8  c-15.1,1-28-9.8-30.3-24.1c-0.4-2.7-2.7-4.6-5.4-4.6c-3.3,0-5.9,3-5.4,6.2C13.8,82.3,32.6,97.6,54.3,95.2z"/><text x="0" y="115" fill="#000000" font-size="5px" font-weight="bold" font-family="'Helvetica Neue', Helvetica, Arial-Unicode, Arial, Sans-serif">Created by Gregor Cresnar</text><text x="0" y="120" fill="#000000" font-size="5px" font-weight="bold" font-family="'Helvetica Neue', Helvetica, Arial-Unicode, Arial, Sans-serif">from the Noun Project</text></svg>