<svg xmlns="http://www.w3.org/2000/svg" viewBox="0 0 32 40" x="0px" y="0px"><title>44 Visibility</title><g data-name="44 Visibility"><path d="M16,21c-6.6,0-6.6-10,0-10C22.525,11,22.807,21,16,21Zm0-8c-4,0-4,6,0,6S20,13,16,13Z"/><path d="M16,25c-4.949,0-9.688-2.629-13-7.214H3a3.043,3.043,0,0,1,0-3.572C6.312,9.629,11.051,7,16,7s9.688,2.629,13,7.214a3.043,3.043,0,0,1,0,3.572C25.688,22.371,20.949,25,16,25ZM4.617,16.614C7.595,20.732,11.637,23,16,23s8.405-2.268,11.383-6.386a1.047,1.047,0,0,0,0-1.229C24.405,11.268,20.363,9,16,9S7.595,11.268,4.617,15.386a1.047,1.047,0,0,0,0,1.229Z"/></g><text x="0" y="47" fill="#000000" font-size="5px" font-weight="bold" font-family="'Helvetica Neue', Helvetica, Arial-Unicode, Arial, Sans-serif">Created by Anconer Design</text><text x="0" y="52" fill="#000000" font-size="5px" font-weight="bold" font-family="'Helvetica Neue', Helvetica, Arial-Unicode, Arial, Sans-serif">from the Noun Project</text></svg>