<svg xmlns="http://www.w3.org/2000/svg" viewBox="0 0 32 40" x="0px" y="0px"><g data-name="44 Visibility"><path d="M16,19C12.0016,19,12,13,16,13S19.999,19,16,19Zm13.0039-1.2139C25.6885,22.3711,20.9492,25,16,25S6.3115,22.3711,2.9961,17.7861a3.0428,3.0428,0,0,1,0-3.5722C6.3115,9.6289,11.0508,7,16,7s9.6885,2.6289,13.0039,7.2139A3.0428,3.0428,0,0,1,29.0039,17.7861ZM15.999,11c-6.6016,0-6.6024,10,0,10C22.807,21,22.5255,11,15.999,11Z"/></g><text x="0" y="47" fill="#000000" font-size="5px" font-weight="bold" font-family="'Helvetica Neue', Helvetica, Arial-Unicode, Arial, Sans-serif">Created by Anconer Design</text><text x="0" y="52" fill="#000000" font-size="5px" font-weight="bold" font-family="'Helvetica Neue', Helvetica, Arial-Unicode, Arial, Sans-serif">from the Noun Project</text></svg>