<svg xmlns="http://www.w3.org/2000/svg" xmlns:xlink="http://www.w3.org/1999/xlink" viewBox="0 0 24 30" version="1.1" x="0px" y="0px"><title>76898679</title><desc>Created with Sketch.</desc><g stroke="none" stroke-width="1" fill="none" fill-rule="evenodd"><path d="M13.5194255,3.94732129 L22.2962458,19.3067569 C22.7757633,20.1459124 22.484219,21.2149081 21.6450635,21.6944255 C21.3806425,21.8455232 21.0813675,21.925 20.7768203,21.925 L3.22317968,21.925 C2.25668137,21.925 1.47317968,21.1414983 1.47317968,20.175 C1.47317968,19.8704529 1.55265648,19.5711778 1.70375418,19.3067569 L10.4805745,3.94732129 C10.9600919,3.10816576 12.0290876,2.81662149 12.8682431,3.29613894 C13.1395479,3.45117022 13.3643942,3.67601656 13.5194255,3.94732129 Z M12.2170608,4.6915297 C12.1949135,4.65277188 12.1627926,4.62065098 12.1240347,4.59850365 C12.0041554,4.53000116 11.8514417,4.57165034 11.7829392,4.6915297 L3.00611889,20.0509653 C2.98453351,20.0887397 2.97317968,20.1314933 2.97317968,20.175 C2.97317968,20.3130712 3.08510849,20.425 3.22317968,20.425 L20.7768203,20.425 C20.8203271,20.425 20.8630806,20.4136462 20.9008551,20.3920608 C21.0207344,20.3235583 21.0623836,20.1708446 20.9938811,20.0509653 L12.2170608,4.6915297 Z" fill="#000000" fill-rule="nonzero"/><path d="M11.8235294,9.15737522 L12.1764706,9.15737522 C12.5906842,9.15737522 12.9264706,9.49316166 12.9264706,9.90737522 L12.9264706,14.5838458 C12.9264706,14.9980594 12.5906842,15.3338458 12.1764706,15.3338458 L11.8235294,15.3338458 C11.4093158,15.3338458 11.0735294,14.9980594 11.0735294,14.5838458 L11.0735294,9.90737522 C11.0735294,9.49316166 11.4093158,9.15737522 11.8235294,9.15737522 Z" fill="#000000" fill-rule="nonzero"/><rect fill="#000000" x="11" y="17" width="2" height="2" rx="1"/></g><text x="0" y="39" fill="#000000" font-size="5px" font-weight="bold" font-family="'Helvetica Neue', Helvetica, Arial-Unicode, Arial, Sans-serif">Created by Sonya Nikolaeva</text><text x="0" y="44" fill="#000000" font-size="5px" font-weight="bold" font-family="'Helvetica Neue', Helvetica, Arial-Unicode, Arial, Sans-serif">from the Noun Project</text></svg>