<?xml version="1.0" encoding="utf-8"?>
<!-- Generator: Adobe Illustrator 14.0.0, SVG Export Plug-In . SVG Version: 6.00 Build 43363)  -->
<!DOCTYPE svg PUBLIC "-//W3C//DTD SVG 1.1//EN" "http://www.w3.org/Graphics/SVG/1.1/DTD/svg11.dtd">
<svg version="1.1" id="Layer_1" xmlns="http://www.w3.org/2000/svg" xmlns:xlink="http://www.w3.org/1999/xlink" x="0px" y="0px"
	 width="34.2px" height="34.2px" viewBox="1.9 2.15 34.2 34.2" enable-background="new 1.9 2.15 34.2 34.2" xml:space="preserve">
<path d="M19,2.15c-9.444,0-17.1,7.656-17.1,17.1s7.656,17.1,17.1,17.1s17.1-7.655,17.1-17.1S28.444,2.15,19,2.15z M19,8.443
	c1.679,0,3.04,1.361,3.04,3.04c0,1.679-1.361,3.04-3.04,3.04s-3.04-1.361-3.04-3.04C15.96,9.805,17.321,8.443,19,8.443z
	 M23.561,29.297c0,0.419-0.341,0.594-0.761,0.594h-7.6c-0.42,0-0.76-0.175-0.76-0.594v-0.381c0-0.42,0.34-0.926,0.76-0.926h0.76
	v-9.5H15.2c-0.42,0-0.76-0.174-0.76-0.594v-0.38c0-0.42,0.34-0.927,0.76-0.927h6.079c0.42,0,0.761,0.507,0.761,0.927v0.38V27.99
	h0.76c0.42,0,0.761,0.506,0.761,0.926V29.297z"/>
</svg>
