<svg xmlns:dc="http://purl.org/dc/elements/1.1/" xmlns:cc="http://creativecommons.org/ns#" xmlns:rdf="http://www.w3.org/1999/02/22-rdf-syntax-ns#" xmlns:svg="http://www.w3.org/2000/svg" xmlns="http://www.w3.org/2000/svg" xmlns:sodipodi="http://sodipodi.sourceforge.net/DTD/sodipodi-0.dtd" xmlns:inkscape="http://www.inkscape.org/namespaces/inkscape" version="1.1" x="0px" y="0px" viewBox="0 0 100 125"><g transform="translate(0,-952.36218)"><path style="text-indent:0;text-transform:none;direction:ltr;block-progression:tb;baseline-shift:baseline;color:#000000;enable-background:accumulate;" d="m 50,962.36219 c -12.153406,0 -22,9.84658 -22,21.99998 l 0,14 -6,0 c -2.216001,0 -4,1.78403 -4,4.00003 l 0,36 c 0,2.216 1.783999,4 4,4 l 56,0 c 2.216,0 4,-1.784 4,-4 l 0,-36 c 0,-2.216 -1.784,-4.00003 -4,-4.00003 l -6,0 0,-14 c 0,-12.1534 -9.84659,-21.99998 -22,-21.99998 z m 0,4 c 10.00659,0 18,7.99338 18,17.99998 l 0,14 -36,0 0,-14 c 0,-10.0066 7.993406,-17.99998 18,-17.99998 z m 0,46.00001 c 4.39459,0 8,3.6054 8,8 0,4.3946 -3.60541,8 -8,8 -4.394589,0 -8,-3.6054 -8,-8 0,-4.3946 3.605411,-8 8,-8 z m 0,4 c -2.232831,0 -4,1.7672 -4,4 0,2.2328 1.767169,4 4,4 2.23283,0 4,-1.7672 4,-4 0,-2.2328 -1.76717,-4 -4,-4 z" fill="#000000" fill-opacity="1" stroke="none" marker="none" visibility="visible" display="inline" overflow="visible"/></g><text x="0" y="115" fill="#000000" font-size="5px" font-weight="bold" font-family="'Helvetica Neue', Helvetica, Arial-Unicode, Arial, Sans-serif">Created by Aya Sofya</text><text x="0" y="120" fill="#000000" font-size="5px" font-weight="bold" font-family="'Helvetica Neue', Helvetica, Arial-Unicode, Arial, Sans-serif">from the Noun Project</text></svg>