<?xml version="1.0" encoding="utf-8"?>
<!-- Generator: Adobe Illustrator 21.1.0, SVG Export Plug-In . SVG Version: 6.00 Build 0)  -->
<svg version="1.1"
	 id="Layer_1" xmlns:cc="http://creativecommons.org/ns#" xmlns:dc="http://purl.org/dc/elements/1.1/" xmlns:inkscape="http://www.inkscape.org/namespaces/inkscape" xmlns:rdf="http://www.w3.org/1999/02/22-rdf-syntax-ns#" xmlns:sodipodi="http://sodipodi.sourceforge.net/DTD/sodipodi-0.dtd" xmlns:svg="http://www.w3.org/2000/svg"
	 xmlns="http://www.w3.org/2000/svg" xmlns:xlink="http://www.w3.org/1999/xlink" x="0px" y="0px" viewBox="0 0 128.1 128.1"
	 style="enable-background:new 0 0 128.1 128.1;" xml:space="preserve">
<path d="M37.7,44.9c-1.7,0-3.3,0.7-4.5,1.9c-1.2,1.2-1.9,2.8-1.9,4.5c0,1.7,0.7,3.3,1.8,4.5L59.5,85c1.2,1.2,2.7,1.9,4.3,2
	c0.1,0,0.3,0,0.4,0c1.8,0,3.5-0.7,4.7-2l17.6-19.5l0.2-0.2l0.1-0.1c2.3-2.7,1.9-6.8-0.8-9c-1.2-1-2.6-1.5-4.1-1.5l0,0
	c-1.9,0-3.7,0.8-4.9,2.3L64.1,71.1L42.6,47.3c-0.2-0.3-0.3-0.4-0.4-0.5C41,45.5,39.4,44.9,37.7,44.9z"/>
<circle cx="92.5" cy="49.4" r="6.4"/>
<path d="M122.7,0H5.3C2.3,0,0,2.4,0,5.3v117.5c0,3,2.4,5.3,5.3,5.3h117.5c3,0,5.3-2.4,5.3-5.3V5.3C128,2.4,125.6,0,122.7,0z
	 M122.6,122.6H5.4V5.4h117.2V122.6z"/>
</svg>
