<?xml version="1.0" encoding="utf-8"?>
<!-- Generator: Adobe Illustrator 14.0.0, SVG Export Plug-In . SVG Version: 6.00 Build 43363)  -->
<!DOCTYPE svg PUBLIC "-//W3C//DTD SVG 1.1//EN" "http://www.w3.org/Graphics/SVG/1.1/DTD/svg11.dtd">
<svg version="1.1" id="Layer_1" xmlns="http://www.w3.org/2000/svg" xmlns:xlink="http://www.w3.org/1999/xlink" x="0px" y="0px"
	 width="32px" height="32px" viewBox="0 0 32 32" enable-background="new 0 0 32 32" xml:space="preserve">
<path d="M30.675,0H1.325C0.575,0,0,0.6,0,1.325V30.7c0,0.75,0.6,1.325,1.325,1.325H30.7c0.75,0,1.325-0.601,1.325-1.325V1.325
	C32,0.6,31.4,0,30.675,0z M30.65,30.65H1.35V1.35h29.3V30.65z"/>
<path d="M20.5,15.375c-0.8,0-1.45,0.65-1.45,1.45c0,1.7-1.375,3.075-3.075,3.075c-1.7,0-3.025-1.4-3.025-3.075
	c0-1.575,1.175-2.85,2.7-3.05v0.65c0,0.375,0.3,0.675,0.7,0.675c0.175,0,0.35-0.075,0.475-0.2l2.024-2.025l0.025-0.025
	c0.2-0.275,0.175-0.675-0.075-0.925l-1.975-2c-0.15-0.1-0.325-0.175-0.5-0.175c-0.375,0-0.7,0.3-0.7,0.675v0.45
	c-3.1,0.2-5.575,2.775-5.575,5.925c0.025,3.275,2.675,5.95,5.95,5.95c3.275,0,5.95-2.675,5.95-5.95
	C21.95,16.025,21.3,15.375,20.5,15.375z"/>
</svg>
