<?xml version="1.0" encoding="utf-8"?>
<!-- Generator: Adobe Illustrator 21.1.0, SVG Export Plug-In . SVG Version: 6.00 Build 0)  -->
<svg version="1.1" id="Layer_1" xmlns="http://www.w3.org/2000/svg" xmlns:xlink="http://www.w3.org/1999/xlink" x="0px" y="0px"
	 viewBox="0 0 128 128" style="enable-background:new 0 0 128 128;" xml:space="preserve">
<path d="M122.7,0H5.3C2.3,0,0,2.4,0,5.3v117.5c0,3,2.4,5.3,5.3,5.3h117.5c3,0,5.3-2.4,5.3-5.3V5.3C128,2.4,125.6,0,122.7,0z
	 M122.6,122.6H5.4V5.4h117.2V122.6z"/>
<g>
	<title>114 - Controls (Solid)</title>
	<desc>Created with Sketch.</desc>
	<g sketch:type="MSPage">
		<g sketch:type="MSLayerGroup">
			<path sketch:type="MSShapeGroup" d="M76.9,85.6v6.2h-54c-0.9,0-1.5,0.7-1.5,1.5s0.7,1.5,1.5,1.5h54v6.2c0,0.9,0.7,1.5,1.5,1.5
				h18.5c0.9,0,1.5-0.7,1.5-1.5v-6.2h4.6c0.9,0,1.5-0.7,1.5-1.5s-0.7-1.5-1.5-1.5h-4.6v-6.2c0-0.9-0.7-1.5-1.5-1.5H78.4
				C77.6,84,76.9,84.7,76.9,85.6"/>
			<path sketch:type="MSShapeGroup" d="M52.2,56.3v6.2H22.9c-0.9,0-1.5,0.7-1.5,1.5c0,0.9,0.7,1.5,1.5,1.5h29.3v6.2
				c0,0.9,0.7,1.5,1.5,1.5h18.5c0.9,0,1.5-0.7,1.5-1.5v-6.2h29.3c0.9,0,1.5-0.7,1.5-1.5c0-0.9-0.7-1.5-1.5-1.5H73.8v-6.2
				c0-0.9-0.7-1.5-1.5-1.5H53.8C52.9,54.8,52.2,55.4,52.2,56.3"/>
			<path sketch:type="MSShapeGroup" d="M27.5,27v6.2h-4.6c-0.9,0-1.5,0.7-1.5,1.5c0,0.9,0.7,1.5,1.5,1.5h4.6v6.2
				c0,0.9,0.7,1.5,1.5,1.5h18.5c0.9,0,1.5-0.7,1.5-1.5v-6.2h54c0.9,0,1.5-0.7,1.5-1.5c0-0.9-0.7-1.5-1.5-1.5h-54V27
				c0-0.9-0.7-1.5-1.5-1.5H29.1C28.2,25.5,27.5,26.1,27.5,27"/>
		</g>
	</g>
</g>
</svg>
