<?xml version="1.0" encoding="utf-8"?>
<!-- Generator: Adobe Illustrator 21.1.0, SVG Export Plug-In . SVG Version: 6.00 Build 0)  -->
<svg version="1.1" id="Layer_1" xmlns="http://www.w3.org/2000/svg" xmlns:xlink="http://www.w3.org/1999/xlink" x="0px" y="0px"
	 viewBox="0 0 21 21" style="enable-background:new 0 0 21 21;" xml:space="preserve">
<g>
	<g>
		<path d="M17.6,1.6c-0.7-0.6-1.8-0.5-2.3,0.2l-1.2,1.5L11,7C9.9,6.6,9.1,6.7,8.5,7C7.7,7.2,7.1,7.7,6.8,8.3c-0.5,1-1.4,1.8-2.4,2.2
			l-0.5,0.3c-1.3,0.6-2.2,1.9-2.4,3.4c-0.3,1.9,0.4,3.6,1.9,4.8c1,0.8,2.1,1.3,3.3,1.3c0.6,0,1.2-0.1,1.8-0.3c1.4-0.5,2.5-1.6,2.9-3
			l0.2-0.6c0.3-1.1,0.9-2,1.7-2.8c0.5-0.5,0.9-1.2,1-1.9c0.1-0.9,0-1.8-0.6-2.5L16.2,6l0,0l0.5-0.6L17.1,5h0l0.8-1
			C18.4,3.3,18.3,2.2,17.6,1.6z M7.2,17c-0.1,0.2-0.4,0.3-0.6,0.3c0,0-0.1,0-0.1,0c-0.2,0-0.4-0.1-0.6-0.2l-1.3-1
			c-0.4-0.3-0.4-0.9-0.1-1.3c0.3-0.4,0.9-0.4,1.3-0.1l1.3,1c0.2,0.2,0.3,0.4,0.3,0.6C7.4,16.6,7.3,16.8,7.2,17z M10.6,13.1
			c-0.3,0.4-0.8,0.6-1.3,0.7c-0.1,0-0.1,0-0.2,0c-0.4,0-0.8-0.2-1.2-0.4c-0.4-0.3-0.6-0.8-0.7-1.3c0-0.5,0.1-1,0.4-1.4
			c0.3-0.4,0.9-0.7,1.4-0.7c0.4,0,0.9,0.1,1.2,0.4c0.3,0.3,0.5,0.6,0.6,1C11.1,12.1,11,12.7,10.6,13.1z M15.6,3.7l0.8-1
			c0.1-0.1,0.2-0.1,0.2-0.1c0,0,0.1,0,0.2,0.1c0.1,0.1,0.1,0.2,0.1,0.2c0,0,0,0.1-0.1,0.2l-0.8,1L15.6,3.7z"/>
	</g>
</g>
</svg>
