<?xml version="1.0" encoding="utf-8"?>
<!-- Generator: Adobe Illustrator 21.1.0, SVG Export Plug-In . SVG Version: 6.00 Build 0)  -->
<svg version="1.1" id="Layer_1" xmlns="http://www.w3.org/2000/svg" xmlns:xlink="http://www.w3.org/1999/xlink" x="0px" y="0px"
	 viewBox="0 0 128 128" style="enable-background:new 0 0 128 128;" xml:space="preserve">
<path d="M122.7,0H5.3C2.3,0,0,2.4,0,5.3v117.5c0,3,2.4,5.3,5.3,5.3h117.5c3,0,5.3-2.4,5.3-5.3V5.3C128,2.4,125.6,0,122.7,0z
	 M122.6,122.6H5.4V5.4h117.2V122.6z"/>
<path d="M49.9,91.5L87,68.3c3.2-2,3.2-6.6,0-8.6L49.9,36.5c-3.4-2.2-7.8,0.3-7.8,4.3v46.5C42.2,91.2,46.5,93.6,49.9,91.5z"/>
</svg>
