<?xml version="1.0" encoding="utf-8"?>
<!-- Generator: Adobe Illustrator 21.1.0, SVG Export Plug-In . SVG Version: 6.00 Build 0)  -->
<svg version="1.1"
	 id="Layer_1" xmlns:cc="http://creativecommons.org/ns#" xmlns:dc="http://purl.org/dc/elements/1.1/" xmlns:inkscape="http://www.inkscape.org/namespaces/inkscape" xmlns:rdf="http://www.w3.org/1999/02/22-rdf-syntax-ns#" xmlns:sodipodi="http://sodipodi.sourceforge.net/DTD/sodipodi-0.dtd" xmlns:svg="http://www.w3.org/2000/svg"
	 xmlns="http://www.w3.org/2000/svg" xmlns:xlink="http://www.w3.org/1999/xlink" x="0px" y="0px" viewBox="0 0 128.1 128.1"
	 style="enable-background:new 0 0 128.1 128.1;" xml:space="preserve">
<path d="M50.1,22.1v16c0,1.1-0.9,2-2,2h-16v66h64v-84C96.1,22.1,50.1,22.1,50.1,22.1z M32.1,36.1h14v-14L32.1,36.1z M56.6,64.4
	c0.8,0.9,0.7,2.4-0.3,3.2l-4.6,4.1h30.9c0.1,0,0.1,0,0.2,0c1.3,0.1,2.3,1.2,2.2,2.4c-0.1,1.3-1.2,2.3-2.4,2.2H51.7l4.6,4.1l0,0
	c0.9,0.8,1,2.3,0.2,3.2c-0.8,0.9-2.3,1-3.2,0.2l-9.3-8.1c-0.1-0.1-0.1-0.1-0.2-0.2c-0.8-0.9-0.7-2.4,0.2-3.2l9.3-8.1
	c0.5-0.5,1-0.6,1.7-0.6C55.6,63.7,56.2,63.9,56.6,64.4z"/>
<path d="M122.7,0H5.3C2.3,0,0,2.4,0,5.3v117.5c0,3,2.4,5.3,5.3,5.3h117.5c3,0,5.3-2.4,5.3-5.3V5.3C128,2.4,125.6,0,122.7,0z
	 M122.6,122.6H5.4V5.4h117.2V122.6z"/>
</svg>
