<?xml version="1.0" encoding="utf-8"?>
<!-- Generator: Adobe Illustrator 21.1.0, SVG Export Plug-In . SVG Version: 6.00 Build 0)  -->
<svg version="1.1" id="Layer_1" xmlns="http://www.w3.org/2000/svg" xmlns:xlink="http://www.w3.org/1999/xlink" x="0px" y="0px"
	 viewBox="0 0 21 21" style="enable-background:new 0 0 21 21;" xml:space="preserve">
<g>
	<title>43 all</title>
	<path d="M20.1,8.3h-4.4c-0.5,0-0.9,0.4-0.9,0.9v2.6c0,0.5,0.4,0.9,0.9,0.9h1.3v3.5c0,0.5-0.4,0.9-0.9,0.9h-3.4
		c-0.3-0.5-0.8-0.9-1.4-1.2v-3.2h1.3c0.5,0,0.9-0.4,0.9-0.9V9.2c0-0.5-0.4-0.9-0.9-0.9h-1.3V5.1c0.6-0.2,1.1-0.6,1.4-1.2h3.4
		c0.5,0,0.9,0.4,0.9,0.9v3.5h1.7V4.8c0-1.4-1.2-2.6-2.6-2.6h-3.1c-0.2-1.4-1.6-2.4-3-2.1C9,0.3,8.1,1.1,7.9,2.2H4.8
		c-1.4,0-2.6,1.2-2.6,2.6v3.5h1.7V4.8c0-0.5,0.4-0.9,0.9-0.9h3.4C8.5,4.5,9,4.9,9.6,5.1v3.2H8.3c-0.5,0-0.9,0.4-0.9,0.9v2.6
		c0,0.5,0.4,0.9,0.9,0.9h1.3v3.2c-0.6,0.2-1.1,0.6-1.4,1.2H4.8c-0.5,0-0.9-0.4-0.9-0.9v-3.5h1.3c0.5,0,0.9-0.4,0.9-0.9V9.2
		c0-0.5-0.4-0.9-0.9-0.9H0.9C0.4,8.3,0,8.7,0,9.2v2.6c0,0.5,0.4,0.9,0.9,0.9h1.3v3.5c0,1.4,1.2,2.6,2.6,2.6h3.1
		c0.2,1.4,1.6,2.4,3,2.1c1.1-0.2,1.9-1,2.1-2.1h3.1c1.4,0,2.6-1.2,2.6-2.6v-3.5h1.3c0.5,0,0.9-0.4,0.9-0.9V9.2
		C21,8.7,20.6,8.3,20.1,8.3z M10.5,1.8c0.5,0,0.9,0.4,0.9,0.9S11,3.5,10.5,3.5S9.6,3.1,9.6,2.6S10,1.8,10.5,1.8z M9.2,10.1h2.6v0.9
		H9.2V10.1z M1.8,10.9v-0.9h2.6v0.9H1.8z M10.5,19.2c-0.5,0-0.9-0.4-0.9-0.9c0-0.5,0.4-0.9,0.9-0.9s0.9,0.4,0.9,0.9
		C11.4,18.8,11,19.2,10.5,19.2z M19.2,10.9h-2.6v-0.9h2.6V10.9z"/>
</g>
</svg>
