<?xml version="1.0" encoding="utf-8"?>
<!-- Generator: Adobe Illustrator 21.1.0, SVG Export Plug-In . SVG Version: 6.00 Build 0)  -->
<svg version="1.1" id="Layer_1" xmlns="http://www.w3.org/2000/svg" xmlns:xlink="http://www.w3.org/1999/xlink" x="0px" y="0px"
	 viewBox="0 0 128 128" style="enable-background:new 0 0 128 128;" xml:space="preserve">
<path d="M122.7,0H5.3C2.3,0,0,2.4,0,5.3v117.5c0,3,2.4,5.3,5.3,5.3h117.5c3,0,5.3-2.4,5.3-5.3V5.3C128,2.4,125.6,0,122.7,0z
	 M122.6,122.6H5.4V5.4h117.2V122.6z"/>
<path d="M82,61.5c-3.2,0-5.8,2.6-5.8,5.8c0,6.8-5.5,12.3-12.3,12.3S51.8,74,51.8,67.3c0-6.3,4.7-11.4,10.8-12.2v2.6
	c0,1.5,1.2,2.7,2.8,2.7c0.7,0,1.4-0.3,1.9-0.8l8.1-8.1l0.1-0.1c0.8-1.1,0.7-2.7-0.3-3.7l-7.9-8C66.7,39.3,66,39,65.3,39
	c-1.5,0-2.8,1.2-2.8,2.7v1.8c-12.4,0.8-22.3,11.1-22.3,23.7C40.3,80.3,50.9,91,64,91s23.8-10.7,23.8-23.8
	C87.8,64.1,85.2,61.5,82,61.5z"/>
</svg>
