<?xml version="1.0" encoding="utf-8"?>
<!-- Generator: Adobe Illustrator 21.1.0, SVG Export Plug-In . SVG Version: 6.00 Build 0)  -->
<svg version="1.1" id="Layer_1" xmlns="http://www.w3.org/2000/svg" xmlns:xlink="http://www.w3.org/1999/xlink" x="0px" y="0px"
	 viewBox="0 0 128 128" style="enable-background:new 0 0 128 128;" xml:space="preserve">
<g>
	<path d="M128,13.3v101.3c0,7.3-6,13.3-13.3,13.3H13.3C6,128,0,122,0,114.7V13.3C0,6,6,0,13.3,0h101.3C122,0,128,6,128,13.3z
		 M114.7,122.7c4.4,0,8-3.6,8-8V13.3c0-4.4-3.6-8-8-8H13.3c-4.4,0-8,3.6-8,8v101.3c0,4.4,3.6,8,8,8H114.7z"/>
	<rect x="48" y="48" width="5.3" height="32"/>
	<rect x="48" y="48" width="32" height="5.3"/>
	<rect x="84.6" y="35.5" transform="matrix(0.7071 -0.7071 0.7071 0.7071 -36.1283 87.2205)" width="5.3" height="103.4"/>
</g>
</svg>
