<?xml version="1.0" encoding="utf-8"?>
<!-- Generator: Adobe Illustrator 21.1.0, SVG Export Plug-In . SVG Version: 6.00 Build 0)  -->
<svg version="1.1" id="Layer_1" xmlns="http://www.w3.org/2000/svg" xmlns:xlink="http://www.w3.org/1999/xlink" x="0px" y="0px"
	 viewBox="0 0 128 128" style="enable-background:new 0 0 128 128;" xml:space="preserve">
<path d="M122.6,0H43.3c-3,0-5.4,2.4-5.4,5.4v79.3c0,3,2.4,5.4,5.4,5.4h79.3c3,0,5.4-2.4,5.4-5.4V5.4C128,2.4,125.6,0,122.6,0z
	 M123.9,84.7c0,0.7-0.6,1.2-1.2,1.2H43.3c-0.7,0-1.2-0.6-1.2-1.2V5.4c0-0.7,0.6-1.2,1.2-1.2h79.3c0.7,0,1.2,0.6,1.2,1.2V84.7z
	 M88,96.9c-1.1,0-2.1,0.9-2.1,2.1v23.7c0,0.7-0.6,1.2-1.2,1.2H5.4c-0.7,0-1.2-0.6-1.2-1.2V43.3c0-0.7,0.6-1.2,1.2-1.2H29
	c1.1,0,2.1-0.9,2.1-2.1S30.2,38,29,38H5.4c-3,0-5.4,2.4-5.4,5.4v79.3c0,3,2.4,5.4,5.4,5.4h79.3c3,0,5.4-2.4,5.4-5.4V99
	C90,97.8,89.1,96.9,88,96.9z"/>
</svg>
