<?xml version="1.0" encoding="utf-8"?>
<!-- Generator: Adobe Illustrator 21.1.0, SVG Export Plug-In . SVG Version: 6.00 Build 0)  -->
<svg version="1.1" id="Layer_1" xmlns="http://www.w3.org/2000/svg" xmlns:xlink="http://www.w3.org/1999/xlink" x="0px" y="0px"
	 viewBox="0 0 128 128" style="enable-background:new 0 0 128 128;" xml:space="preserve">
<style type="text/css">
	.st0{fill:#FFFFFF;}
</style>
<g>
	<path class="st0" d="M28.6,127.5c-10,0-17.5-6.6-17.8-15.7v-0.3v-0.3c0-4.2,1.5-8.1,4.3-11.2l0.1-0.1C9.6,92.1,5.9,83.4,4.3,74
		C-1.7,40.8,21.6,7.6,55.1,1.6c3.5-0.6,7.2-0.9,10.8-0.9c0.9,0,1.9,0,2.8,0.1h0.1c23.9,1.4,44.7,15.7,54.3,37.6l0.1,0.2
		c9.1,22.1,5.1,47.2-10.5,65.3l-0.1,0.1c-12,13.4-29.2,21.1-47.2,21.1l0,0c-5.3,0-10.7-0.7-15.9-2.1
		C42.6,126.1,35.7,127.5,28.6,127.5L28.6,127.5L28.6,127.5z"/>
	<path d="M112.3,43.2c-7.9-17.8-25-29.6-44.4-30.8c-3.7-0.1-7.3,0.1-11,0.7C29.7,18,10.7,44.9,15.5,72c1.9,10.4,6.9,20,14.5,27.4
		l-6.3,7.9c-0.9,1-1.5,2.4-1.5,3.8c0.1,2.8,2.7,4.6,6.3,4.6l0,0c5.8,0,11.5-1.3,16.8-3.5l0.5-0.2c0.8-0.3,1.6-0.7,2.4-0.8
		c1.2,0,2.2,0.2,3.4,0.6L52,112c18.8,4.9,38.8-1,51.6-15.5C116.3,81.8,119.7,61.1,112.3,43.2z"/>
	<path class="st0" d="M60.8,55.8V40.6H71v15.3h15.2V66H71v15.2H60.8V66H45.6V55.8H60.8z"/>
</g>
</svg>
