<?xml version="1.0" encoding="utf-8"?>
<!-- Generator: Adobe Illustrator 21.1.0, SVG Export Plug-In . SVG Version: 6.00 Build 0)  -->
<svg version="1.1" id="Layer_1" xmlns="http://www.w3.org/2000/svg" xmlns:xlink="http://www.w3.org/1999/xlink" x="0px" y="0px"
	 viewBox="0 0 128 128" style="enable-background:new 0 0 128 128;" xml:space="preserve">
<style type="text/css">
	.st0{fill:#FFFFFF;}
</style>
<g>
	<path class="st0" d="M28.4,127.5c-10,0-17.5-6.6-17.9-15.8l0-0.3l0-0.3c0-4.1,1.5-8.1,4.2-11.2l0.1-0.2C9.3,92.1,5.6,83.4,3.9,73.9
		C-2,40.6,21.3,7.3,54.9,1.3c3.5-0.6,7.2-1,10.8-1c0.9,0,1.9,0,2.8,0.1l0.1,0c23.9,1.4,44.8,15.8,54.5,37.7l0.1,0.3
		c9.1,22.2,5.1,47.3-10.6,65.6l-0.2,0.2c-12,13.5-29.3,21.2-47.4,21.2c0,0,0,0,0,0c-5.4,0-10.7-0.7-15.9-2
		C42.5,126.1,35.6,127.5,28.4,127.5L28.4,127.5L28.4,127.5z"/>
	<path d="M112.4,42.9c-7.9-17.8-25.1-29.7-44.5-30.8c-3.7-0.2-7.4,0.1-11,0.7c-27.3,4.9-46.4,32-41.6,59.1
		c1.9,10.5,6.9,20.1,14.5,27.5l-6.2,7.9c-1,1-1.5,2.4-1.5,3.9c0.1,2.8,2.7,4.7,6.3,4.7l0,0c5.8,0,11.5-1.2,16.8-3.5l0.4-0.2
		c0.8-0.4,1.6-0.7,2.4-0.8c1.1,0,2.3,0.2,3.3,0.6l0.5,0.1c18.8,4.9,38.9-1.1,51.9-15.6C116.5,81.6,119.9,60.9,112.4,42.9z"/>
	<path class="st0" d="M56.6,35h16.8v58.9H62.2V45.5H50.1L56.6,35z"/>
</g>
</svg>
