<?xml version="1.0" encoding="utf-8"?>
<!-- Generator: Adobe Illustrator 21.1.0, SVG Export Plug-In . SVG Version: 6.00 Build 0)  -->
<svg version="1.1" id="Layer_1" xmlns="http://www.w3.org/2000/svg" xmlns:xlink="http://www.w3.org/1999/xlink" x="0px" y="0px"
	 viewBox="0 0 128 128" style="enable-background:new 0 0 128 128;" xml:space="preserve">

<g>
	<path fill="#ffffff" class="st0" d="M83.5,127.4c-3.5,0-7-1.4-9.4-3.8l-18.8-18.7H30.4c-11.1,0-20.2-9-20.2-20.2V39.5c0-11.1,9-20.2,20.2-20.2
		h65.5c11.1,0,20.2,9,20.2,20.2v45.1c0,11.1-9,20.1-20.1,20.2l0.8,7.8c0.6,5.6-2.5,11-7.5,13.4C87.4,126.9,85.5,127.4,83.5,127.4z"
		/>
	<path d="M95.8,29.4c5.6,0,10.2,4.6,10.2,10.2v45.1c0,5.6-4.6,10.2-10.2,10.2h-11l1.9,18.8c0.1,1.4-0.7,2.8-1.9,3.4
		c-1.2,0.6-2.9,0.3-3.8-0.6L59.4,94.8h-29c-5.6,0-10.2-4.6-10.2-10.2V39.5c0-5.6,4.6-10.2,10.2-10.2h65.4V29.4z"/>
	<path fill="#ffffff" d="M45.6,40.1h8l10,30.1l10.1-30.1h8l7.2,43.1H81L76.4,56l-9.2,27.2H60L50.9,56l-4.7,27.2h-8L45.6,40.1z"/>
</g>

</svg>
