<?xml version="1.0" encoding="utf-8"?>
<!-- Generator: Adobe Illustrator 21.1.0, SVG Export Plug-In . SVG Version: 6.00 Build 0)  -->
<svg version="1.1" id="Layer_1" xmlns="http://www.w3.org/2000/svg" xmlns:xlink="http://www.w3.org/1999/xlink" x="0px" y="0px"
	 viewBox="0 0 128 128" style="enable-background:new 0 0 128 128;" xml:space="preserve">
<style type="text/css">
	.st0{fill:#FFFFFF;}
</style>
<g>
	<path class="st0" d="M89.5,127.4c-4.1,0-8.2-1.6-11-4.4l-22-21.9H27.4c-13,0-23.6-10.5-23.6-23.6V24.6c0-13,10.5-23.6,23.6-23.6
		H104c13,0,23.6,10.5,23.6,23.6v52.8c0,13-10.5,23.5-23.5,23.6l0.9,9.1c0.7,6.6-2.9,12.9-8.8,15.7C94.1,126.8,91.9,127.4,89.5,127.4
		z"/>
	<path d="M103.9,12.7c6.6,0,11.9,5.4,11.9,11.9v52.8c0,6.6-5.4,11.9-11.9,11.9H91l2.2,22c0.1,1.6-0.8,3.3-2.2,4
		c-1.4,0.7-3.4,0.4-4.4-0.7L61.3,89.3H27.4c-6.6,0-11.9-5.4-11.9-11.9V24.6c0-6.6,5.4-11.9,11.9-11.9h76.5V12.7z"/>
	<path class="st0" d="M45.2,25.3h9.4l11.7,35.2L78,25.3h9.4l8.4,50.4h-9.2l-5.4-31.8L70.4,75.7H62L51.4,43.9l-5.5,31.8h-9.4
		L45.2,25.3z"/>
</g>
</svg>
