<?xml version="1.0" encoding="utf-8"?>
<!-- Generator: Adobe Illustrator 21.1.0, SVG Export Plug-In . SVG Version: 6.00 Build 0)  -->
<svg version="1.1" id="Layer_1" xmlns="http://www.w3.org/2000/svg" xmlns:xlink="http://www.w3.org/1999/xlink" x="0px" y="0px"
	 viewBox="0 0 101.1 128" style="enable-background:new 0 0 101.1 128;" xml:space="preserve">
<path d="M29.6,125C14.9,125,3,113.1,3,98.4c0-14.6,11.9-26.5,26.6-26.5c6.1,0,12.1,2.2,17,6.2l4.8,3.9V5.4c0-1.3,1.1-2.4,2.4-2.4h42
	c1.4,0,2.5,1.1,2.5,2.3c0,1.3-1.1,2.4-2.4,2.4H56.2v90.7C56.2,113.1,44.3,125,29.6,125z M29.6,76.6c-5.8,0-11.3,2.3-15.5,6.5
	c-4.1,4.2-6.3,9.6-6.3,15.3c0,12,9.8,21.8,21.8,21.8s21.8-9.8,21.8-21.8S41.6,76.6,29.6,76.6z"/>
</svg>
