<?xml version="1.0" encoding="utf-8"?>
<!-- Generator: Adobe Illustrator 21.1.0, SVG Export Plug-In . SVG Version: 6.00 Build 0)  -->
<svg version="1.1" id="Layer_1" xmlns="http://www.w3.org/2000/svg" xmlns:xlink="http://www.w3.org/1999/xlink" x="0px" y="0px"
	 viewBox="0 0 21 21" style="enable-background:new 0 0 21 21;" xml:space="preserve">
<g>
	<path d="M9.4,16.5c-3.9,0-7.1-3.2-7.1-7.1c0-3.9,3.2-7.1,7.1-7.1c3.9,0,7.1,3.2,7.1,7.1c0,0.4,0.4,0.8,0.8,0.8
		c0.4,0,0.8-0.4,0.8-0.8c0-4.8-3.9-8.7-8.7-8.7c-4.8,0-8.7,3.9-8.7,8.7c0,4.8,3.9,8.7,8.7,8.7c0.4,0,0.8-0.4,0.8-0.8
		C10.2,16.9,9.9,16.5,9.4,16.5z"/>
	<path d="M11.9,11c-0.4,0-0.8,0.4-0.8,0.8v8.4l1.1,0l0.4,0v0c3.9-0.5,7.1-3.7,7.6-7.6h0l0.1-1.5H11.9z M12.6,18.5v-6h6
		C18.1,15.7,15.7,18.1,12.6,18.5z"/>
</g>
</svg>
