<?xml version="1.0" encoding="utf-8"?>
<!-- Generator: Adobe Illustrator 21.1.0, SVG Export Plug-In . SVG Version: 6.00 Build 0)  -->
<svg version="1.1" id="Layer_1" xmlns="http://www.w3.org/2000/svg" xmlns:xlink="http://www.w3.org/1999/xlink" x="0px" y="0px"
	 viewBox="0 0 128 128" style="enable-background:new 0 0 128 128;" xml:space="preserve">
<path d="M88.3,89.8H39.7c-0.9,0-1.5-0.6-1.5-1.5V39.7c0-0.9,0.6-1.5,1.5-1.5h48.6c0.9,0,1.5,0.6,1.5,1.5v48.6
	C89.8,89.2,89.2,89.8,88.3,89.8z"/>
<path d="M122.7,0H5.3C2.3,0,0,2.4,0,5.3v117.5c0,3,2.4,5.3,5.3,5.3h117.5c3,0,5.3-2.4,5.3-5.3V5.3C128,2.4,125.6,0,122.7,0z
	 M122.6,122.6H5.4V5.4h117.2V122.6z"/>
</svg>
